<?xml version="1.0" encoding="UTF-8"?>
<svg width="55px" height="40px" viewBox="0 0 55 40" version="1.1" xmlns="http://www.w3.org/2000/svg" xmlns:xlink="http://www.w3.org/1999/xlink">
    <!-- Generator: Sketch 52.2 (67145) - http://www.bohemiancoding.com/sketch -->
    <title>cresendo</title>
    <desc>Created with Sketch.</desc>
    <g id="Page-1" stroke="none" stroke-width="1" fill="none" fill-rule="evenodd">
        <g id="homepage-copy" transform="translate(-845.000000, -837.000000)" fill-rule="nonzero">
            <g id="特点" transform="translate(-1.000000, 730.000000)">
                <g id="Group-24" transform="translate(843.000000, 100.000000)">
                    <g id="cresendo" transform="translate(3.440541, 0.000000)">
                        <g id="small-copy">
                            <rect id="Rectangle" fill-opacity="0" fill="#E5EDFD" x="0" y="0" width="54" height="54"></rect>
                            <path d="M6,10 C4.34314575,10 3,11.3431458 3,13 L3,41 C3,42.6568542 4.34314575,44 6,44 L48,44 C49.6568542,44 51,42.6568542 51,41 L51,13 C51,11.3431458 49.6568542,10 48,10 L6,10 Z M6,7 L48,7 C51.3137085,7 54,9.6862915 54,13 L54,41 C54,44.3137085 51.3137085,47 48,47 L6,47 C2.6862915,47 4.05812251e-16,44.3137085 0,41 L0,13 C-4.05812251e-16,9.6862915 2.6862915,7 6,7 Z" id="Rectangle" fill="#314659"></path>
                        </g>
                        <g id="Group-19" transform="translate(15.000000, 18.000000)" fill="#45CD71">
                            <path d="M1,0 L12,0 C12.5522847,-1.01453063e-16 13,0.44771525 13,1 L13,4 C13,4.55228475 12.5522847,5 12,5 L1,5 C0.44771525,5 6.76353751e-17,4.55228475 0,4 L0,1 C-6.76353751e-17,0.44771525 0.44771525,1.01453063e-16 1,0 Z M2,7 L20,7 C20.5522847,7 21,7.44771525 21,8 L21,11 C21,11.5522847 20.5522847,12 20,12 L2,12 C1.44771525,12 1,11.5522847 1,11 L1,8 C1,7.44771525 1.44771525,7 2,7 Z M4,14 L24,14 C24.5522847,14 25,14.4477153 25,15 L25,18 C25,18.5522847 24.5522847,19 24,19 L4,19 C3.44771525,19 3,18.5522847 3,18 L3,15 C3,14.4477153 3.44771525,14 4,14 Z" id="Combined-Shape"></path>
                        </g>
                    </g>
                </g>
            </g>
        </g>
    </g>
</svg>