<?xml version="1.0" encoding="UTF-8"?>
<svg width="55px" height="38px" viewBox="0 0 55 38" version="1.1" xmlns="http://www.w3.org/2000/svg" xmlns:xlink="http://www.w3.org/1999/xlink">
    <!-- Generator: Sketch 52.2 (67145) - http://www.bohemiancoding.com/sketch -->
    <title>effect</title>
    <desc>Created with Sketch.</desc>
    <g id="Page-1" stroke="none" stroke-width="1" fill="none" fill-rule="evenodd">
        <g id="homepage-copy" transform="translate(-480.000000, -1099.000000)" fill-rule="nonzero">
            <g id="特点" transform="translate(-1.000000, 730.000000)">
                <g id="Group-26" transform="translate(481.000000, 360.000000)">
                    <g id="effect" transform="translate(0.440541, 0.000000)">
                        <g id="Group-21">
                            <rect id="Rectangle" fill-opacity="0" fill="#E5EDFD" x="0" y="0" width="54" height="54"></rect>
                            <path d="M6,12 C4.34314575,12 3,13.3431458 3,15 L3,41 C3,42.6568542 4.34314575,44 6,44 L48,44 C49.6568542,44 51,42.6568542 51,41 L51,15 C51,13.3431458 49.6568542,12 48,12 L6,12 Z M6,9 L48,9 C51.3137085,9 54,11.6862915 54,15 L54,41 C54,44.3137085 51.3137085,47 48,47 L6,47 C2.6862915,47 4.05812251e-16,44.3137085 0,41 L0,15 C-4.05812251e-16,11.6862915 2.6862915,9 6,9 Z" id="Rectangle" fill="#314659"></path>
                            <path d="M25.2705402,30.9667423 L24.7372888,32.6822211 C24.5733505,33.2096134 24.0129163,33.5042511 23.485524,33.3403128 C23.2755136,33.2750317 23.0928801,33.1423407 22.9658973,32.9627819 L20.6849648,29.7374514 L16.7349192,29.78794 C16.1826795,29.7949986 15.7292787,29.353042 15.7222201,28.8008024 C15.7194093,28.5808977 15.7891691,28.3661991 15.9206998,28.1899446 L18.2833245,25.023967 L17.0146758,21.2828521 C16.8373113,20.7598223 17.1175284,20.1920404 17.6405582,20.0146758 C17.8488315,19.9440483 18.0745789,19.9440483 18.2828521,20.0146758 L22.023967,21.2833245 L25.1899446,18.9206998 C25.6325669,18.590391 26.2591514,18.6814391 26.5894603,19.1240614 C26.720991,19.3003159 26.7907508,19.5150144 26.78794,19.7349192 L26.7374514,23.6849648 L29.9627819,25.9658973 C30.4137021,26.2847851 30.5207355,26.9088377 30.2018477,27.3597579 C30.0748649,27.5393167 29.8922315,27.6720077 29.6822211,27.7372888 L28.1714419,28.2069099 L37.9679015,37.6246141 C38.7641917,38.3901177 38.7891491,39.6562017 38.0236455,40.4524919 C37.2581419,41.248782 35.9920579,41.2737395 35.1957677,40.5082359 L25.2705402,30.9667423 Z M42,17 L45,17 C45.5522847,17 46,17.4477153 46,18 L46,21 C46,21.5522847 45.5522847,22 45,22 L42,22 C41.4477153,22 41,21.5522847 41,21 L41,18 C41,17.4477153 41.4477153,17 42,17 Z" id="Combined-Shape" fill="#45CD71"></path>
                        </g>
                    </g>
                </g>
            </g>
        </g>
    </g>
</svg>