<?xml version="1.0" encoding="UTF-8"?>
<svg width="55px" height="45px" viewBox="0 0 55 45" version="1.1" xmlns="http://www.w3.org/2000/svg" xmlns:xlink="http://www.w3.org/1999/xlink">
    <!-- Generator: Sketch 52.2 (67145) - http://www.bohemiancoding.com/sketch -->
    <title>monitor</title>
    <desc>Created with Sketch.</desc>
    <g id="Page-1" stroke="none" stroke-width="1" fill="none" fill-rule="evenodd">
        <g id="homepage-copy" transform="translate(-1204.000000, -830.000000)" fill-rule="nonzero">
            <g id="特点" transform="translate(-1.000000, 730.000000)">
                <g id="Group-25" transform="translate(1205.000000, 100.000000)">
                    <g id="monitor" transform="translate(0.440541, 0.000000)">
                        <g id="Group-21">
                            <rect id="Rectangle" fill-opacity="0" fill="#E5EDFD" x="0" y="0" width="54" height="54"></rect>
                            <path d="M5.52796799,38.2268445 C3.77315406,35.0259348 3,31.4905122 3,27 C3,13.745166 13.745166,3 27,3 C40.254834,3 51,13.745166 51,27 C51,30.9847848 50.0302338,34.8230922 48.2010522,38.2593363 C47.9615695,38.7092213 47.848219,39.1926222 47.8486314,39.6690114 L50.8492245,39.6690114 C52.8603421,35.8909877 54,31.5785845 54,27 C54,12.0883118 41.9116882,0 27,0 C12.0883118,0 0,12.0883118 0,27 C0,31.6740439 0.775002144,35.797694 2.89734935,39.6690114 L5.89790987,39.6690114 C5.89834775,39.1806624 5.77930522,38.6853021 5.52796799,38.2268445 Z M5.89790987,39.6690114 C5.89834775,39.1806624 5.77930522,38.6853021 5.52796799,38.2268445 C3.77315406,35.0259348 3,31.4905122 3,27 C3,13.745166 13.745166,3 27,3 C40.254834,3 51,13.745166 51,27 C51,30.9847848 50.0302338,34.8230922 48.2010522,38.2593363 C47.9615695,38.7092213 47.848219,39.1926222 47.8486314,39.6690114 L50.8492245,39.6690114 C52.8603421,35.8909877 54,31.5785845 54,27 C54,12.0883118 41.9116882,0 27,0 C12.0883118,0 0,12.0883118 0,27 C0,31.6740439 0.775002144,35.797694 2.89734935,39.6690114 L5.89790987,39.6690114 Z" id="Path" fill="#314659"></path>
                            <path d="M4,40 C3.17157288,40 2.5,39.3284271 2.5,38.5 C2.5,37.6715729 3.17157288,37 4,37 L11.9824219,37 C12.810849,37 13.4824219,37.6715729 13.4824219,38.5 C13.4824219,39.3284271 12.810849,40 11.9824219,40 L4,40 Z M42,40 C41.1715729,40 40.5,39.3284271 40.5,38.5 C40.5,37.6715729 41.1715729,37 42,37 L49.9824219,37 C50.810849,37 51.4824219,37.6715729 51.4824219,38.5 C51.4824219,39.3284271 50.810849,40 49.9824219,40 L42,40 Z M26,2 C26,1.17157288 26.6715729,0.5 27.5,0.5 C28.3284271,0.5 29,1.17157288 29,2 L29,8.0625 C29,8.89092712 28.3284271,9.5625 27.5,9.5625 C26.6715729,9.5625 26,8.89092712 26,8.0625 L26,2 Z M9.87524414,23.8752441 C10.7036713,23.8752441 11.3752441,24.546817 11.3752441,25.3752441 C11.3752441,26.2036713 10.7036713,26.8752441 9.87524414,26.8752441 L3.12475586,26.8752441 C2.29632873,26.8752441 1.62475586,26.2036713 1.62475586,25.3752441 C1.62475586,24.546817 2.29632873,23.8752441 3.12475586,23.8752441 L9.87524414,23.8752441 Z M15.0832209,13.2712358 C15.7360304,13.7812665 15.8517755,14.7239347 15.3417448,15.3767441 C14.8317141,16.0295536 13.8890459,16.1452987 13.2362365,15.6352681 L7.91677911,11.4792525 C7.26396963,10.9692218 7.14822452,10.0265536 7.65825519,9.37374414 C8.16828586,8.72093466 9.11095405,8.60518956 9.76376353,9.11522022 L15.0832209,13.2712358 Z M38.9167791,13.2712358 L44.2362365,9.11522022 C44.8890459,8.60518956 45.8317141,8.72093466 46.3417448,9.37374414 C46.8517755,10.0265536 46.7360304,10.9692218 46.0832209,11.4792525 L40.7637635,15.6352681 C40.1109541,16.1452987 39.1682859,16.0295536 38.6582552,15.3767441 C38.1482245,14.7239347 38.2639696,13.7812665 38.9167791,13.2712358 Z M51.8752441,23.8752441 C52.7036713,23.8752441 53.3752441,24.546817 53.3752441,25.3752441 C53.3752441,26.2036713 52.7036713,26.8752441 51.8752441,26.8752441 L45.1247559,26.8752441 C44.2963287,26.8752441 43.6247559,26.2036713 43.6247559,25.3752441 C43.6247559,24.546817 44.2963287,23.8752441 45.1247559,23.8752441 L51.8752441,23.8752441 Z" id="Combined-Shape" fill="#314659"></path>
                        </g>
                        <path d="M29.3156412,35.3398634 C31.1794168,36.0665429 32.5,37.8790521 32.5,40 C32.5,42.7614237 30.2614237,45 27.5,45 C24.7385763,45 22.5,42.7614237 22.5,40 C22.5,37.8790521 23.8205832,36.0665429 25.6843588,35.3398634 C25.5660343,35.0844948 25.5,34.799959 25.5,34.5 L25.5,20 C25.5,18.8954305 26.3954305,18 27.5,18 C28.6045695,18 29.5,18.8954305 29.5,20 L29.5,34.5 C29.5,34.799959 29.4339657,35.0844948 29.3156412,35.3398634 Z" id="Combined-Shape" fill="#45CD71"></path>
                    </g>
                </g>
            </g>
        </g>
    </g>
</svg>