<?xml version="1.0" encoding="UTF-8"?>
<svg width="144px" height="29px" viewBox="0 0 144 29" version="1.1" xmlns="http://www.w3.org/2000/svg" xmlns:xlink="http://www.w3.org/1999/xlink">
    <!-- Generator: Sketch 52.2 (67145) - http://www.bohemiancoding.com/sketch -->
    <title>SEIN.JS</title>
    <desc>Created with Sketch.</desc>
    <g id="Page-1" stroke="none" stroke-width="1" fill="none" fill-rule="evenodd">
        <g id="homepage" transform="translate(-888.000000, -146.000000)" fill="#0D1A26">
            <path d="M888.796966,172.27763 C887.991428,171.672656 887.796543,171.061255 888.212304,170.443409 L889.712935,168.203728 C890.206651,167.470036 890.927726,167.431421 891.876182,168.087883 C892.603764,168.589883 893.555453,169.107964 894.731278,169.642144 C895.907102,170.176323 897.144623,170.443409 898.443877,170.443409 C899.353354,170.443409 900.230337,170.340436 901.074852,170.134487 C901.919367,169.928539 902.562488,169.529519 903.004235,168.937417 C903.445981,168.345314 903.666851,167.643812 903.666851,166.832889 C903.666851,166.253659 903.569408,165.745231 903.37452,165.30759 C903.179632,164.869949 902.86132,164.509544 902.419573,164.226365 C901.977827,163.943185 901.523095,163.705061 901.055364,163.511984 C900.236834,163.177317 899.207191,162.845874 897.966403,162.517643 C896.725616,162.189412 895.501088,161.793611 894.292782,161.330226 C893.214401,160.918329 892.226983,160.351979 891.330498,159.631158 C890.434013,158.910338 889.738922,158.099427 889.245206,157.198402 C888.75149,156.297377 888.504635,155.093882 888.504635,153.587883 C888.504635,151.798704 889.08929,150.266984 890.258619,148.992676 C891.427947,147.718369 892.772655,146.901023 894.292782,146.540613 C895.812909,146.180202 897.346005,146 898.892117,146 C900.425236,146 902.007054,146.231689 903.637618,146.695073 C905.268181,147.158458 906.499206,147.73768 907.330728,148.432756 C908.149258,149.114961 908.350639,149.732798 907.934878,150.286285 L906.356293,152.390812 C905.823598,153.111633 905.10902,153.169555 904.212535,152.564581 C903.640863,152.178427 902.858074,151.747228 901.864145,151.270972 C900.870216,150.794716 899.834077,150.556591 898.755696,150.556591 C897.989136,150.556591 897.284302,150.620949 896.641171,150.749667 C895.99804,150.878385 895.429625,151.187303 894.935909,151.676431 C894.442193,152.165559 894.195338,152.770525 894.195338,153.491345 C894.195338,154.186422 894.377231,154.749554 894.741022,155.180759 C895.104813,155.611964 895.507576,155.933754 895.949322,156.146138 C896.391068,156.358523 896.839304,156.535508 897.294043,156.677097 C898.697237,157.12761 899.950998,157.523412 901.055364,157.864514 C902.159729,158.205616 903.179628,158.582111 904.115091,158.994008 C905.414345,159.573239 906.408259,160.15246 907.096863,160.731691 C907.785468,161.310922 908.353883,162.102525 908.802126,163.106525 C909.250368,164.110524 909.474486,165.307583 909.474486,166.697736 C909.474486,168.757223 908.811877,170.459492 907.486638,171.804594 C906.161399,173.149696 904.690016,174.018529 903.072445,174.411119 C901.454874,174.803708 899.879553,175 898.346433,175 C896.085732,175 894.247315,174.784401 892.831128,174.353196 C891.414942,173.921991 890.070234,173.230142 888.796966,172.27763 Z M915.321099,174.343542 C914.411621,174.343542 913.956889,173.860857 913.956889,172.895473 L913.956889,148.104527 C913.956889,147.139143 914.411621,146.656458 915.321099,146.656458 L932.042411,146.656458 C933.016851,146.656458 933.504064,147.074785 933.504064,147.911451 L933.504064,150.189747 C933.504064,151.026413 933.016851,151.44474 932.042411,151.44474 L919.647592,151.44474 L919.647592,157.584554 L931.00951,157.584554 C931.98395,157.584554 932.471163,158.002881 932.471163,158.839547 L932.471163,161.117843 C932.471163,161.954509 931.98395,162.372836 931.00951,162.372836 L919.647592,162.372836 L919.647592,169.55526 L932.66605,169.55526 C933.64049,169.55526 934.127703,169.973587 934.127703,170.810253 L934.127703,173.088549 C934.127703,173.925215 933.64049,174.343542 932.66605,174.343542 L915.321099,174.343542 Z M940.266646,174.343542 C939.357169,174.343542 938.902437,173.860857 938.902437,172.895473 L938.902437,148.104527 C938.902437,147.139143 939.357169,146.656458 940.266646,146.656458 L943.22893,146.656458 C944.138408,146.656458 944.59314,147.139143 944.59314,148.104527 L944.59314,172.895473 C944.59314,173.860857 944.138408,174.343542 943.22893,174.343542 L940.266646,174.343542 Z M952.193736,174.343542 C951.284259,174.343542 950.829527,173.860857 950.829527,172.895473 L950.829527,148.104527 C950.829527,147.139143 951.284259,146.656458 952.193736,146.656458 L955.078065,146.656458 C956.195423,146.656458 957.039926,147.106964 957.611597,148.007989 L967.550839,163.820905 L967.68726,163.820905 C967.622297,163.048598 967.589816,162.276302 967.589816,161.503995 L967.589816,148.104527 C967.589816,147.139143 968.044548,146.656458 968.954026,146.656458 L971.91631,146.656458 C972.825788,146.656458 973.28052,147.139143 973.28052,148.104527 L973.28052,172.895473 C973.28052,173.860857 972.825788,174.343542 971.91631,174.343542 L969.226868,174.343542 C968.10951,174.343542 967.265008,173.893036 966.693336,172.992011 L956.559207,156.889481 L956.422786,156.889481 C956.487749,157.661788 956.52023,158.434084 956.52023,159.206391 L956.52023,172.895473 C956.52023,173.860857 956.065498,174.343542 955.15602,174.343542 L952.193736,174.343542 Z M981.4268,174.343542 C980.517322,174.343542 980.06259,173.860857 980.06259,172.895473 L980.06259,170.308256 C980.06259,169.342871 980.517322,168.860186 981.4268,168.860186 L984.389084,168.860186 C985.298561,168.860186 985.753293,169.342871 985.753293,170.308256 L985.753293,172.895473 C985.753293,173.860857 985.298561,174.343542 984.389084,174.343542 L981.4268,174.343542 Z M991.171154,173.976698 C990.48255,173.577672 990.222703,173.094987 990.391606,172.528628 L991.210132,169.883489 C991.443998,169.124053 992.054638,169.046823 993.042071,169.651798 C993.886585,170.179541 994.82853,170.443409 995.867933,170.443409 C997.297113,170.443409 998.229313,169.954288 998.664563,168.976032 C999.099813,167.997776 999.317435,166.369519 999.317435,164.091212 L999.317435,148.104527 C999.317435,147.139143 999.772167,146.656458 1000.68164,146.656458 L1003.64393,146.656458 C1004.55341,146.656458 1005.00814,147.139143 1005.00814,148.104527 L1005.00814,163.70506 C1005.00814,168.441879 1004.20586,171.508537 1002.60128,172.905126 C1000.9967,174.301716 998.771765,175 995.926399,175 C993.938541,175 992.353475,174.658903 991.171154,173.976698 Z M1011.32248,172.27763 C1010.51694,171.672656 1010.32206,171.061255 1010.73782,170.443409 L1012.23845,168.203728 C1012.73217,167.470036 1013.45324,167.431421 1014.4017,168.087883 C1015.12928,168.589883 1016.08097,169.107964 1017.25679,169.642144 C1018.43262,170.176323 1019.67014,170.443409 1020.96939,170.443409 C1021.87887,170.443409 1022.75585,170.340436 1023.60037,170.134487 C1024.44488,169.928539 1025.088,169.529519 1025.52975,168.937417 C1025.97149,168.345314 1026.19236,167.643812 1026.19236,166.832889 C1026.19236,166.253659 1026.09492,165.745231 1025.90003,165.30759 C1025.70515,164.869949 1025.38683,164.509544 1024.94509,164.226365 C1024.50334,163.943185 1024.04861,163.705061 1023.58088,163.511984 C1022.76235,163.177317 1021.7327,162.845874 1020.49192,162.517643 C1019.25113,162.189412 1018.0266,161.793611 1016.8183,161.330226 C1015.73991,160.918329 1014.7525,160.351979 1013.85601,159.631158 C1012.95953,158.910338 1012.26444,158.099427 1011.77072,157.198402 C1011.277,156.297377 1011.03015,155.093882 1011.03015,153.587883 C1011.03015,151.798704 1011.6148,150.266984 1012.78413,148.992676 C1013.95346,147.718369 1015.29817,146.901023 1016.8183,146.540613 C1018.33842,146.180202 1019.87152,146 1021.41763,146 C1022.95075,146 1024.53257,146.231689 1026.16313,146.695073 C1027.7937,147.158458 1029.02472,147.73768 1029.85624,148.432756 C1030.67477,149.114961 1030.87615,149.732798 1030.46039,150.286285 L1028.88181,152.390812 C1028.34911,153.111633 1027.63453,153.169555 1026.73805,152.564581 C1026.16638,152.178427 1025.38359,151.747228 1024.38966,151.270972 C1023.39573,150.794716 1022.35959,150.556591 1021.28121,150.556591 C1020.51465,150.556591 1019.80982,150.620949 1019.16669,150.749667 C1018.52355,150.878385 1017.95514,151.187303 1017.46142,151.676431 C1016.96771,152.165559 1016.72085,152.770525 1016.72085,153.491345 C1016.72085,154.186422 1016.90274,154.749554 1017.26654,155.180759 C1017.63033,155.611964 1018.03309,155.933754 1018.47484,156.146138 C1018.91658,156.358523 1019.36482,156.535508 1019.81956,156.677097 C1021.22275,157.12761 1022.47651,157.523412 1023.58088,157.864514 C1024.68524,158.205616 1025.70514,158.582111 1026.64061,158.994008 C1027.93986,159.573239 1028.93377,160.15246 1029.62238,160.731691 C1030.31098,161.310922 1030.8794,162.102525 1031.32764,163.106525 C1031.77588,164.110524 1032,165.307583 1032,166.697736 C1032,168.757223 1031.33739,170.459492 1030.01215,171.804594 C1028.68691,173.149696 1027.21553,174.018529 1025.59796,174.411119 C1023.98039,174.803708 1022.40507,175 1020.87195,175 C1018.61125,175 1016.77283,174.784401 1015.35664,174.353196 C1013.94046,173.921991 1012.59575,173.230142 1011.32248,172.27763 Z" id="SEIN.JS"></path>
        </g>
    </g>
</svg>