<?xml version="1.0" encoding="UTF-8"?>
<svg width="43px" height="54px" viewBox="0 0 43 54" version="1.1" xmlns="http://www.w3.org/2000/svg" xmlns:xlink="http://www.w3.org/1999/xlink">
    <!-- Generator: Sketch 52.2 (67145) - http://www.bohemiancoding.com/sketch -->
    <title>small</title>
    <desc>Created with Sketch.</desc>
    <g id="Page-1" stroke="none" stroke-width="1" fill="none" fill-rule="evenodd">
        <g id="homepage-copy" transform="translate(-486.000000, -830.000000)" fill-rule="nonzero">
            <g id="特点" transform="translate(-1.000000, 730.000000)">
                <g id="Group-23" transform="translate(481.000000, 100.000000)">
                    <g id="small" transform="translate(0.440541, 0.000000)">
                        <rect id="Rectangle" fill-opacity="0" fill="#E5EDFD" x="0" y="0" width="54" height="54"></rect>
                        <g transform="translate(6.000000, 0.000000)">
                            <path d="M18,37 L24,37 C25.1045695,37 26,37.8954305 26,39 L26,42 C26,44.7614237 23.7614237,47 21,47 L21,47 C18.2385763,47 16,44.7614237 16,42 L16,39 C16,37.8954305 16.8954305,37 18,37 Z" id="Rectangle" fill="#45CD71"></path>
                            <path d="M6,3 C4.34314575,3 3,4.34314575 3,6 L3,48 C3,49.6568542 4.34314575,51 6,51 L36,51 C37.6568542,51 39,49.6568542 39,48 L39,6 C39,4.34314575 37.6568542,3 36,3 L6,3 Z M6,0 L36,0 C39.3137085,-6.08718376e-16 42,2.6862915 42,6 L42,48 C42,51.3137085 39.3137085,54 36,54 L6,54 C2.6862915,54 4.05812251e-16,51.3137085 0,48 L0,6 C-4.05812251e-16,2.6862915 2.6862915,6.08718376e-16 6,0 Z" id="Rectangle" fill="#314659"></path>
                            <path d="M22,9 L25,9 C25.5522847,9 26,9.44771525 26,10 L26,13 C26,13.5522847 25.5522847,14 25,14 L22,14 C21.4477153,14 21,13.5522847 21,13 L21,10 C21,9.44771525 21.4477153,9 22,9 Z M17,14 L20,14 C20.5522847,14 21,14.4477153 21,15 L21,18 C21,18.5522847 20.5522847,19 20,19 L17,19 C16.4477153,19 16,18.5522847 16,18 L16,15 C16,14.4477153 16.4477153,14 17,14 Z M17,24 L20,24 C20.5522847,24 21,24.4477153 21,25 L21,28 C21,28.5522847 20.5522847,29 20,29 L17,29 C16.4477153,29 16,28.5522847 16,28 L16,25 C16,24.4477153 16.4477153,24 17,24 Z M22,29 L25,29 C25.5522847,29 26,29.4477153 26,30 L26,33 C26,33.5522847 25.5522847,34 25,34 L22,34 C21.4477153,34 21,33.5522847 21,33 L21,30 C21,29.4477153 21.4477153,29 22,29 Z M22,19 L25,19 C25.5522847,19 26,19.4477153 26,20 L26,23 C26,23.5522847 25.5522847,24 25,24 L22,24 C21.4477153,24 21,23.5522847 21,23 L21,20 C21,19.4477153 21.4477153,19 22,19 Z" id="Combined-Shape" fill="#45CD71"></path>
                        </g>
                    </g>
                </g>
            </g>
        </g>
    </g>
</svg>