<?xml version="1.0" encoding="UTF-8"?>
<svg width="41px" height="54px" viewBox="0 0 41 54" version="1.1" xmlns="http://www.w3.org/2000/svg" xmlns:xlink="http://www.w3.org/1999/xlink">
    <!-- Generator: Sketch 52.2 (67145) - http://www.bohemiancoding.com/sketch -->
    <title>stable</title>
    <desc>Created with Sketch.</desc>
    <g id="Page-1" stroke="none" stroke-width="1" fill="none" fill-rule="evenodd">
        <g id="homepage-copy" transform="translate(-849.000000, -1090.000000)" fill-rule="nonzero">
            <g id="特点" transform="translate(-1.000000, 730.000000)">
                <g id="Group-28" transform="translate(843.000000, 360.000000)">
                    <g id="stable" transform="translate(0.440541, 0.000000)">
                        <g id="Group-21">
                            <rect id="Rectangle" fill-opacity="0" fill="#E5EDFD" x="0" y="0" width="54" height="54"></rect>
                            <path d="M9.99998468,13.9821713 L10,29.0692206 C10,38.3084305 15.7334767,46.5776758 24.385947,49.8177001 L27,50.7965646 L29.614053,49.8177001 C38.2665233,46.5776758 44,38.3084305 44,29.0692206 L44,14.0306836 C39.5402893,12.9724839 36.191709,11.8039342 33.8971077,10.4698888 C31.7762378,9.23684802 29.4589323,7.22744617 26.8934119,4.43307898 C24.0441709,7.28957489 21.6403932,9.29465394 19.6189513,10.4698888 C17.4493279,11.731274 14.2622605,12.8846074 9.99998468,13.9821713 Z M7.76620125,11.4464506 C12.5458836,10.2971335 15.9941869,9.10710162 18.1111111,7.87635488 C20.1841107,6.67114523 22.8927856,4.31506646 26.2371359,0.808118571 C26.6182969,0.408477035 27.2512614,0.393455283 27.6509272,0.774590794 C27.6745003,0.797070925 27.6969608,0.820689465 27.7182286,0.845361929 C30.6697077,4.26934199 33.2319475,6.61300631 35.4049479,7.87635488 C37.636513,9.17375205 41.2395783,10.3678463 46.2141438,11.4586375 C46.673022,11.5592152 47,11.9656594 47,12.4354306 L47,29.0692206 C47,39.5594817 40.4901719,48.9484385 30.6660989,52.627184 L27,54 L23.3339011,52.627184 C13.5098281,48.9484385 7,39.5594817 7,29.0692206 L6.99998309,12.418753 C6.99998309,11.9565197 7.31677828,11.5545184 7.76620125,11.4464506 Z" id="Rectangle" fill="#314659"></path>
                            <path d="M19.6972261,31.7235435 C19.7038895,31.7235435 19.7092202,31.7204611 19.7158836,31.7198446 L24.8306857,31.7198446 L23.019582,39.00537 L23.0262453,39.006603 C23.0142513,39.05962 22.9969265,39.1114041 22.9989255,39.166887 C23.013585,39.5108812 23.3254306,39.7771992 23.6952476,39.7642532 C23.8835735,39.7563439 24.0593108,39.6744896 24.1783419,39.5392391 L34.8104136,27.8348064 C34.8197423,27.8261758 34.827072,27.8163121 34.8357344,27.807065 L34.8403988,27.8009002 L34.8397324,27.8009002 C34.947964,27.6841723 35.0050182,27.5341749 34.9996533,27.3804629 C34.9850719,27.0512253 34.6934721,26.790673 34.3373144,26.7886449 L34.3373144,26.7880284 L34.3319837,26.7880284 C34.3219886,26.7880284 34.3139926,26.7837131 34.3039975,26.7843296 C34.2973342,26.7843296 34.2933361,26.787412 34.2873391,26.787412 L30.0327779,26.7467245 L32.9373405,20.8803292 L32.9346752,20.8790962 C32.9805104,20.7919949 33.0033474,20.6960729 33.0013089,20.5992157 C32.9943763,20.4346375 32.9170366,20.2793538 32.786315,20.1675478 C32.6555934,20.0557417 32.4822057,19.9965787 32.3043205,20.0030824 C32.2976571,20.0030824 32.2923264,20.0067812 32.285663,20.0067812 L24.5248371,20.0043153 C24.514842,20.0043153 24.506846,20 24.4968509,20 C24.2385772,20.0102563 24.0100221,20.1577929 23.9104744,20.3785169 L23.9104744,20.3779004 L23.9084754,20.3822158 C23.9038111,20.3933123 23.897814,20.4037925 23.8931497,20.4155055 L19.0575427,30.8610921 C19.0171644,30.9450034 18.9975847,31.0362082 19.0002377,31.1280267 C19.0148972,31.4707879 19.3267428,31.7377225 19.6965598,31.7241599 L19.6972261,31.7235435 Z" id="Shape" fill="#45CD71"></path>
                        </g>
                    </g>
                </g>
            </g>
        </g>
    </g>
</svg>