<?xml version="1.0" encoding="UTF-8"?>
<svg width="55px" height="44px" viewBox="0 0 55 44" version="1.1" xmlns="http://www.w3.org/2000/svg" xmlns:xlink="http://www.w3.org/1999/xlink">
    <!-- Generator: Sketch 52.2 (67145) - http://www.bohemiancoding.com/sketch -->
    <title>team</title>
    <desc>Created with Sketch.</desc>
    <g id="Page-1" stroke="none" stroke-width="1" fill="none" fill-rule="evenodd">
        <g id="homepage-copy" transform="translate(-1204.000000, -1095.000000)" fill-rule="nonzero">
            <g id="特点" transform="translate(-1.000000, 730.000000)">
                <g id="Group-27" transform="translate(1205.000000, 360.000000)">
                    <g id="team" transform="translate(0.440541, 0.000000)">
                        <g id="Group-21">
                            <rect id="Rectangle" fill-opacity="0" fill="#E5EDFD" x="0" y="0" width="54" height="54"></rect>
                            <path d="M27,45.484402 L31.875024,40 L48,40 C49.6568542,40 51,38.6568542 51,37 L51,11 C51,9.34314575 49.6568542,8 48,8 L6,8 C4.34314575,8 3,9.34314575 3,11 L3,37 C3,38.6568542 4.34314575,40 6,40 L22.124976,40 L27,45.484402 Z M33.2222222,43 L28.4948186,48.318329 C27.7609826,49.1438946 26.4968379,49.218256 25.6712723,48.48442 C25.6127026,48.432358 25.5572433,48.3768987 25.5051814,48.318329 L20.7777778,43 L6,43 C2.6862915,43 4.05812251e-16,40.3137085 0,37 L0,11 C-4.05812251e-16,7.6862915 2.6862915,5 6,5 L48,5 C51.3137085,5 54,7.6862915 54,11 L54,37 C54,40.3137085 51.3137085,43 48,43 L33.2222222,43 Z" id="Combined-Shape" fill="#314659"></path>
                            <g id="心-爱心" transform="translate(17.000000, 17.000000)" fill="#45CD71">
                                <path d="M18.244259,1.74765631 C15.9765043,-0.509850105 12.3621012,-0.590206775 9.99841503,1.56433183 C7.63472884,-0.590206786 4.02032577,-0.509850116 1.75257103,1.74765631 C0.631224002,2.86659982 1.92782575e-16,4.39321335 0,5.98624457 C-1.92782575e-16,7.57927579 0.631224002,9.10588933 1.75257103,10.2248328 L8.66057528,17.1469121 C9.01320096,17.5098473 9.495257,17.7142857 9.99841503,17.7142857 C10.501573,17.7142857 10.9836291,17.5098473 11.3362548,17.1469121 L18.244259,10.2311544 C19.3675419,9.11197273 20,7.58399758 20,5.98940534 C20,4.39481309 19.3675419,2.86683794 18.244259,1.74765631 Z" id="Shape"></path>
                            </g>
                        </g>
                    </g>
                </g>
            </g>
        </g>
    </g>
</svg>