{
	"asset": {
		"generator": "Sein.js Unity Toolkit",
		"extras": {
			"exporterVersion" : "0.8.0"
		},
		"version": "2.0"
	},
	"accessors": [
		{
			"bufferView": 2,
			"byteOffset": 12360,
			"componentType": 5126,
			"count": 515,
			"max": [ 0.5, 0.5, 0.5 ],
			"min": [ -0.5, -0.5, -0.5 ],
			"type": "VEC3"
		},
		{
			"bufferView": 2,
			"byteOffset": 18540,
			"componentType": 5126,
			"count": 515,
			"max": [ 0.999975, 1, 0.9999735 ],
			"min": [ -0.999975, -1, -0.999977 ],
			"type": "VEC3"
		},
		{
			"bufferView": 1,
			"byteOffset": 8240,
			"componentType": 5126,
			"count": 515,
			"max": [ 0.9983337, 0.9758912 ],
			"min": [ -0.0009213686, 0.01762898 ],
			"type": "VEC2"
		},
		{
			"bufferView": 1,
			"byteOffset": 12360,
			"componentType": 5126,
			"count": 515,
			"max": [ 1, 0.6538535 ],
			"min": [ 0, 0 ],
			"type": "VEC2"
		},
		{
			"bufferView": 3,
			"byteOffset": 8240,
			"componentType": 5126,
			"count": 515,
			"max": [ 1, 0.056131, 1, 1 ],
			"min": [ -1, -0.06598339, -1, -1 ],
			"type": "VEC4"
		},
		{
			"bufferView": 0,
			"byteOffset": 4608,
			"componentType": 5123,
			"count": 2304,
			"max": [ 514 ],
			"min": [ 0 ],
			"type": "SCALAR"
		},
		{
			"bufferView": 2,
			"byteOffset": 0,
			"componentType": 5126,
			"count": 0,
			"max": [ 0, 0, 0 ],
			"min": [ 0, 0, 0 ],
			"type": "VEC3"
		},
		{
			"bufferView": 2,
			"byteOffset": 0,
			"componentType": 5126,
			"count": 0,
			"max": [ 0, 0, 0 ],
			"min": [ 0, 0, 0 ],
			"type": "VEC3"
		},
		{
			"bufferView": 1,
			"byteOffset": 0,
			"componentType": 5126,
			"count": 0,
			"max": [ 0, 0 ],
			"min": [ 0, 0 ],
			"type": "VEC2"
		},
		{
			"bufferView": 1,
			"byteOffset": 0,
			"componentType": 5126,
			"count": 0,
			"max": [ 0, 0 ],
			"min": [ 0, 0 ],
			"type": "VEC2"
		},
		{
			"bufferView": 3,
			"byteOffset": 0,
			"componentType": 5126,
			"count": 0,
			"max": [ 0, 0, 0, 0 ],
			"min": [ 0, 0, 0, 0 ],
			"type": "VEC4"
		},
		{
			"bufferView": 2,
			"byteOffset": 25296,
			"componentType": 5126,
			"count": 24,
			"max": [ 0.5, 0.5, 0.5 ],
			"min": [ -0.5, -0.5, -0.5 ],
			"type": "VEC3"
		},
		{
			"bufferView": 2,
			"byteOffset": 25584,
			"componentType": 5126,
			"count": 24,
			"max": [ 1, 1, 1 ],
			"min": [ -1, -1, -1 ],
			"type": "VEC3"
		},
		{
			"bufferView": 1,
			"byteOffset": 16864,
			"componentType": 5126,
			"count": 24,
			"max": [ 1, 1 ],
			"min": [ 0, 0 ],
			"type": "VEC2"
		},
		{
			"bufferView": 1,
			"byteOffset": 17056,
			"componentType": 5126,
			"count": 24,
			"max": [ 0.9966581, 0.6528358 ],
			"min": [ 0.004055766, 0.004055766 ],
			"type": "VEC2"
		},
		{
			"bufferView": 3,
			"byteOffset": 16864,
			"componentType": 5126,
			"count": 24,
			"max": [ 0, 0, 1, 1 ],
			"min": [ -1, 0, -1, 1 ],
			"type": "VEC4"
		},
		{
			"bufferView": 0,
			"byteOffset": 9288,
			"componentType": 5123,
			"count": 36,
			"max": [ 23 ],
			"min": [ 0 ],
			"type": "SCALAR"
		},
		{
			"bufferView": 2,
			"byteOffset": 0,
			"componentType": 5126,
			"count": 0,
			"max": [ 0, 0, 0 ],
			"min": [ 0, 0, 0 ],
			"type": "VEC3"
		},
		{
			"bufferView": 2,
			"byteOffset": 0,
			"componentType": 5126,
			"count": 0,
			"max": [ 0, 0, 0 ],
			"min": [ 0, 0, 0 ],
			"type": "VEC3"
		},
		{
			"bufferView": 1,
			"byteOffset": 0,
			"componentType": 5126,
			"count": 0,
			"max": [ 0, 0 ],
			"min": [ 0, 0 ],
			"type": "VEC2"
		},
		{
			"bufferView": 1,
			"byteOffset": 0,
			"componentType": 5126,
			"count": 0,
			"max": [ 0, 0 ],
			"min": [ 0, 0 ],
			"type": "VEC2"
		},
		{
			"bufferView": 3,
			"byteOffset": 0,
			"componentType": 5126,
			"count": 0,
			"max": [ 0, 0, 0, 0 ],
			"min": [ 0, 0, 0, 0 ],
			"type": "VEC4"
		}
	],
	"buffers": [
		{
			"byteLength": 69728,
			"uri": "scene.bin"
		}
	],
	"bufferViews": [
		{
			"buffer": 0,
			"byteLength": 9360,
			"target": 34963,
			"byteOffset": 60368
		},
		{
			"buffer": 0,
			"byteLength": 17248,
			"target": 34962,
			"byteStride": 8,
			"byteOffset": 0
		},
		{
			"buffer": 0,
			"byteLength": 25872,
			"target": 34962,
			"byteStride": 12,
			"byteOffset": 17248
		},
		{
			"buffer": 0,
			"byteLength": 17248,
			"target": 34962,
			"byteStride": 16,
			"byteOffset": 43120
		}
	],
	"extensionsRequired": [
		"Sein_node",
		"Sein_physicBody",
		"Sein_animator",
		"Sein_customMaterial",
		"Sein_renderer"
	],
	"extensionsUsed": [
		"Sein_node",
		"Sein_physicBody",
		"Sein_animator",
		"Sein_customMaterial",
		"Sein_renderer"
	],
	"images": [
		{
			"uri": "simple/lightmap-0_comp_light.png"
		}
	],
	"materials": [
		{
			"pbrMetallicRoughness": {
				"baseColorFactor": [1, 0, 0, 1],
				"metallicFactor": 0.535,
				"roughnessFactor": 0
			},
			"emissiveFactor": [0, 0, 0],
			"doubleSided": false,
			"name": "Material3"
		},
		{
			"pbrMetallicRoughness": {
				"baseColorFactor": [0, 0.990566, 0.4343621, 1],
				"metallicFactor": 0.268,
				"roughnessFactor": 0.691
			},
			"emissiveFactor": [0, 0, 0],
			"doubleSided": false,
			"name": "Material1"
		},
		{
			"pbrMetallicRoughness": {
				"baseColorFactor": [0, 0.3988881, 1, 1],
				"metallicFactor": 0.35,
				"roughnessFactor": 0.583
			},
			"emissiveFactor": [0, 0, 0],
			"doubleSided": false,
			"name": "Material2"
		}
	],
	"meshes": [
		{
			"name": "Sphere",
			"primitives": [
				{
					"attributes":{
						"POSITION": 0,
						"NORMAL": 1,
						"TEXCOORD_0": 2,
						"TEXCOORD_1": 3,
						"TANGENT": 4
					},
					"indices": 5,
					"material": 0,
					"mode": 4
				}
			]
		},
		{
			"name": "Sphere",
			"primitives": [
				{
					"attributes":{
						"POSITION": 0,
						"NORMAL": 1,
						"TEXCOORD_0": 2,
						"TEXCOORD_1": 3,
						"TANGENT": 4
					},
					"indices": 5,
					"material": 1,
					"mode": 4
				}
			]
		},
		{
			"name": "Cube",
			"primitives": [
				{
					"attributes":{
						"POSITION": 11,
						"NORMAL": 12,
						"TEXCOORD_0": 13,
						"TEXCOORD_1": 14,
						"TANGENT": 15
					},
					"indices": 16,
					"material": 1,
					"mode": 4
				}
			]
		},
		{
			"name": "Cube",
			"primitives": [
				{
					"attributes":{
						"POSITION": 11,
						"NORMAL": 12,
						"TEXCOORD_0": 13,
						"TEXCOORD_1": 14,
						"TANGENT": 15
					},
					"indices": 16,
					"material": 2,
					"mode": 4
				}
			]
		}
	],
	"nodes": [
		{
			"name": "Sphere",
			"mesh": 0,
			"matrix": [1, 0, 0, 0, 0, 1, 0, 0, 0, 0, 1, 0, 1.647, 1.45, 0.42, 1]
,
			"extensions": {
				"Sein_node": {
					"selfType": 2,
					"childrenType": 1,
					"className": "",
					"tag": "",
					"layer": 268435455,
					"persistent": false,
					"emitComponentsDestroy": true,
					"updateOnEverTick": false,
					"isStatic": false,
					"skipThisNode": false
				},
				"Sein_renderer": {
					"lightMap": {
						"uvChannel": 1,
						"uvRotation": 0,
						"uvScale": [0.1699218, 0.1699218],
						"uvOffset": [0.5810547, 0.1564208],
						"lightMapIndex": 0
					},
					"castShadows": true,
					"receiveShadows": true
				}
			}
		},
		{
			"name": "Sphere2",
			"mesh": 1,
			"matrix": [1, 0, 0, 0, 0, 1, 0, 0, 0, 0, 1, 0, -0.851, 1.45, 1.183, 1]
,
			"extensions": {
				"Sein_node": {
					"selfType": 2,
					"childrenType": 1,
					"className": "",
					"tag": "",
					"layer": 268435455,
					"persistent": false,
					"emitComponentsDestroy": true,
					"updateOnEverTick": true,
					"isStatic": false,
					"skipThisNode": false
				},
				"Sein_renderer": {
					"lightMap": {
						"uvChannel": 1,
						"uvRotation": 0,
						"uvScale": [0.1699218, 0.1699218],
						"uvOffset": [0.8193359, 0],
						"lightMapIndex": 0
					},
					"castShadows": true,
					"receiveShadows": true
				}

			}
		},
		{
			"name": "Cube",
			"mesh": 2,
			"matrix": [4, 0, 0, 0, 0, 0.25, 0, 0, 0, 0, 4, 0, 0, 0, 0, 1]
,
			"extensions": {
				"Sein_node": {
					"selfType": 2,
					"childrenType": 1,
					"className": "",
					"tag": "",
					"layer": 268435455,
					"persistent": false,
					"emitComponentsDestroy": true,
					"updateOnEverTick": true,
					"isStatic": false,
					"skipThisNode": false
				},
				"Sein_renderer": {
					"lightMap": {
						"uvChannel": 1,
						"uvRotation": 0,
						"uvScale": [0.5834175, 0.5834175],
						"uvOffset": [-0.002366205, -0.002366205],
						"lightMapIndex": 0
					},
					"castShadows": true,
					"receiveShadows": true
				}

			}
		},
		{
			"name": "Cube2",
			"mesh": 3,
			"matrix": [1, 0, 0, 0, 0, 1, 0, 0, 0, 0, 1, 0, 0.307, 1.85, -0.992, 1]
,
			"extensions": {
				"Sein_node": {
					"selfType": 2,
					"childrenType": 1,
					"className": "",
					"tag": "",
					"layer": 268435455,
					"persistent": false,
					"emitComponentsDestroy": true,
					"updateOnEverTick": true,
					"isStatic": false,
					"skipThisNode": false
				},
				"Sein_renderer": {
					"lightMap": {
						"uvChannel": 1,
						"uvRotation": 0,
						"uvScale": [0.2380894, 0.2380894],
						"uvOffset": [0.580089, -0.0009656351],
						"lightMapIndex": 0
					},
					"castShadows": true,
					"receiveShadows": true
				}

			}
		}
	],
	"samplers": [
		{
			"magFilter": 9729,
			"minFilter": 9985,
			"wrapS": 33071,
			"wrapT": 33071
		}
	],
	"scenes": [
		{
			"name":"defaultScene",
			"nodes": [
				0,
				1,
				2,
				3
			]
		}
	],
	"scene": 0,
	"textures": [
		{
			"sampler": 0,
			"source": 0
		}
	],
	"extensions": {
		"Sein_renderer": {
			"gammaCorrection": true,
			"useHDR": true,
			"exposure": 0.7
		}
	}
}