{
  "extensionsUsed": [
    "Sein_renderer",
    "Sein_customMaterial",
    "Sein_physicBody",
    "Sein_node"
  ],
  "extensionsRequired": [
    "Sein_renderer",
    "Sein_customMaterial",
    "Sein_physicBody",
    "Sein_node"
  ],
  "accessors": [
    {
      "bufferView": 0,
      "componentType": 5126,
      "count": 24,
      "type": "VEC3",
      "max": [
        0.5,
        0.5,
        0.5
      ],
      "min": [
        -0.5,
        -0.5,
        -0.5
      ],
      "name": "Cube-primitives-POSITION"
    },
    {
      "bufferView": 0,
      "byteOffset": 12,
      "componentType": 5126,
      "count": 24,
      "type": "VEC3",
      "max": [
        1.0,
        1.0,
        1.0
      ],
      "min": [
        -1.0,
        -1.0,
        -1.0
      ],
      "name": "Cube-primitives-NORMAL"
    },
    {
      "bufferView": 0,
      "byteOffset": 24,
      "componentType": 5126,
      "count": 24,
      "type": "VEC2",
      "max": [
        1.0,
        1.0
      ],
      "min": [
        0.0,
        0.0
      ],
      "name": "Cube-primitives-TEXCOORD_0"
    },
    {
      "bufferView": 0,
      "byteOffset": 32,
      "componentType": 5126,
      "count": 24,
      "type": "VEC2",
      "max": [
        0.9966580867767334,
        0.65283584594726563
      ],
      "min": [
        0.0040557663887739182,
        0.0040557663887739182
      ],
      "name": "Cube-primitives-TEXCOORD_1"
    },
    {
      "bufferView": 0,
      "byteOffset": 40,
      "componentType": 5126,
      "count": 24,
      "type": "VEC4",
      "max": [
        0.0,
        0.0,
        1.0,
        1.0
      ],
      "min": [
        -1.0,
        0.0,
        -1.0,
        1.0
      ],
      "name": "Cube-primitives-TANGENT"
    },
    {
      "bufferView": 1,
      "componentType": 5123,
      "count": 36,
      "type": "SCALAR",
      "max": [
        23.0
      ],
      "min": [
        0.0
      ],
      "name": "Cube-indices-0"
    }
  ],
  "asset": {
    "generator": "Sein.js Toolkit",
    "version": "2.0",
    "exporterVersion": "1.0.4"
  },
  "buffers": [
    {
      "uri": "scene.bin",
      "byteLength": 1440
    }
  ],
  "bufferViews": [
    {
      "buffer": 0,
      "byteOffset": 24,
      "byteLength": 1344,
      "byteStride": 56,
      "name": "Cube-primitives"
    },
    {
      "buffer": 0,
      "byteOffset": 1368,
      "byteLength": 72,
      "name": "Cube-indices"
    }
  ],
  "images": [
    {
      "uri": "resources/favor.png"
    }
  ],
  "materials": [
    {
      "alphaMode": "BLEND",
      "name": "Material1",
      "extensions": {
        "Sein_customMaterial": {
          "className": "UnlitMaterial",
          "renderOrder": 2450,
          "cloneForInst": true,
          "uniforms": {
            "u_texture": {
              "type": 35678,
              "value": {
                "index": 0
              }
            },
            "_Mode": {
              "type": 5126,
              "value": 1.0
            },
            "_Cutoff": {
              "type": 5126,
              "value": 0.5
            },
            "u_color": {
              "type": 35666,
              "value": [
                1.0,
                0.0,
                0.0,
                1.0
              ]
            }
          }
        }
      }
    }
  ],
  "meshes": [
    {
      "primitives": [
        {
          "attributes": {
            "POSITION": 0,
            "NORMAL": 1,
            "TEXCOORD_0": 2,
            "TEXCOORD_1": 3,
            "TANGENT": 4
          },
          "indices": 5,
          "material": 0
        }
      ],
      "name": "Cube"
    }
  ],
  "nodes": [
    {
      "matrix": [
        1.0,
        0.0,
        0.0,
        0.0,
        0.0,
        1.0,
        0.0,
        0.0,
        0.0,
        0.0,
        1.0,
        0.0,
        0.0,
        0.0,
        0.0,
        1.0
      ],
      "mesh": 0,
      "name": "Cube",
      "extensions": {
        "Sein_renderer": {
          "castShadows": true,
          "receiveShadows": true
        },
        "Sein_physicBody": {
          "mass": 1.0,
          "friction": 0.0,
          "restitution": 0.0,
          "unControl": false,
          "physicStatic": false,
          "sleeping": false,
          "colliders": [
            {
              "name": "box0",
              "type": "BOX",
              "offset": [
                0.0,
                0.0,
                0.0
              ],
              "size": [
                1.0,
                1.0,
                1.0
              ],
              "isTrigger": false
            }
          ]
        },
        "Sein_node": {
          "selfType": 2,
          "childrenType": 1,
          "className": "",
          "tag": "",
          "layer": 268435455,
          "persistent": false,
          "emitComponentsDestroy": true,
          "updateOnEverTick": true,
          "isStatic": false,
          "skipThisNode": false
        }
      }
    }
  ],
  "samplers": [
    {
      "minFilter": 9985
    }
  ],
  "scene": 0,
  "scenes": [
    {
      "nodes": [
        0
      ]
    }
  ],
  "textures": [
    {
      "sampler": 0,
      "source": 0
    }
  ],
  "extensions": {
    "Sein_renderer": {
      "gammaCorrection": true,
      "useHDR": false,
      "exposure": 0.0
    },
    "Sein_customMaterial": {
      "scripts": [
        {"uri": "seincustommaterials/unlit/unlitmaterial.js"}
      ]
    }
  }
}