{
	"asset": {
		"generator": "Sein.js Unity Toolkit",
		"extras": {
			"exporterVersion" : "0.8.0"
		},
		"version": "2.0"
	},
	"accessors": [
		{
			"bufferView": 2,
			"byteOffset": 0,
			"componentType": 5126,
			"count": 238,
			"max": [ 3.342178, 0.8944507, 0.4326881 ],
			"min": [ 2.207721, 0.3782802, -0.4139415 ],
			"type": "VEC3"
		},
		{
			"bufferView": 2,
			"byteOffset": 2856,
			"componentType": 5126,
			"count": 238,
			"max": [ 0.9991942, 0.9996887, 0.9530138 ],
			"min": [ -0.390233, -0.9945005, -0.9533616 ],
			"type": "VEC3"
		},
		{
			"bufferView": 4,
			"byteOffset": 0,
			"componentType": 5123,
			"count": 238,
			"max": [ 0, 1, 2, 0 ],
			"min": [ 0, 1, 2, 0 ],
			"type": "VEC4"
		},
		{
			"bufferView": 3,
			"byteOffset": 0,
			"componentType": 5126,
			"count": 238,
			"max": [ 0.5936581, 0.1353178, 0.3582951, 0 ],
			"min": [ 0.522387, 0.1138561, 0.283489, 0 ],
			"type": "VEC4"
		},
		{
			"bufferView": 3,
			"byteOffset": 3808,
			"componentType": 5126,
			"count": 238,
			"max": [ 1, 0, 0, -1 ],
			"min": [ 1, 0, 0, -1 ],
			"type": "VEC4"
		},
		{
			"bufferView": 0,
			"byteOffset": 0,
			"componentType": 5123,
			"count": 372,
			"max": [ 237 ],
			"min": [ 0 ],
			"type": "SCALAR"
		},
		{
			"bufferView": 2,
			"byteOffset": 5712,
			"componentType": 5126,
			"count": 1062,
			"max": [ 3.121338, 1.699548, 1.04385 ],
			"min": [ -1.000244, -0.04492033, -1.045518 ],
			"type": "VEC3"
		},
		{
			"bufferView": 2,
			"byteOffset": 18456,
			"componentType": 5126,
			"count": 1062,
			"max": [ 0.9911793, 0.9731315, 0.9956129 ],
			"min": [ -0.976241, -0.9775339, -0.9955232 ],
			"type": "VEC3"
		},
		{
			"bufferView": 4,
			"byteOffset": 1904,
			"componentType": 5123,
			"count": 1062,
			"max": [ 0, 2, 2, 0 ],
			"min": [ 0, 0, 0, 0 ],
			"type": "VEC4"
		},
		{
			"bufferView": 3,
			"byteOffset": 7616,
			"componentType": 5126,
			"count": 1062,
			"max": [ 1, 0.4261622, 0.3804041, 0 ],
			"min": [ 0.5008337, 0, 0, 0 ],
			"type": "VEC4"
		},
		{
			"bufferView": 3,
			"byteOffset": 24608,
			"componentType": 5126,
			"count": 1062,
			"max": [ 1, 0, 0, -1 ],
			"min": [ 1, 0, 0, -1 ],
			"type": "VEC4"
		},
		{
			"bufferView": 0,
			"byteOffset": 744,
			"componentType": 5123,
			"count": 1620,
			"max": [ 1061 ],
			"min": [ 0 ],
			"type": "SCALAR"
		},
		{
			"bufferView": 2,
			"byteOffset": 31200,
			"componentType": 5126,
			"count": 482,
			"max": [ 3.121338, 2.159455, 0.8307443 ],
			"min": [ -1.354112, 1.307076, -0.8306859 ],
			"type": "VEC3"
		},
		{
			"bufferView": 2,
			"byteOffset": 36984,
			"componentType": 5126,
			"count": 482,
			"max": [ 0.8100831, 0.998484, 0.9336731 ],
			"min": [ -0.8049773, -0.9634275, -0.9264382 ],
			"type": "VEC3"
		},
		{
			"bufferView": 4,
			"byteOffset": 10400,
			"componentType": 5123,
			"count": 482,
			"max": [ 0, 2, 2, 0 ],
			"min": [ 0, 0, 0, 0 ],
			"type": "VEC4"
		},
		{
			"bufferView": 3,
			"byteOffset": 41600,
			"componentType": 5126,
			"count": 482,
			"max": [ 1, 0.2601901, 0.3647798, 0 ],
			"min": [ 0.5156331, 0, 0, 0 ],
			"type": "VEC4"
		},
		{
			"bufferView": 3,
			"byteOffset": 49312,
			"componentType": 5126,
			"count": 482,
			"max": [ 1, 0, 0, -1 ],
			"min": [ 1, 0, 0, -1 ],
			"type": "VEC4"
		},
		{
			"bufferView": 0,
			"byteOffset": 3984,
			"componentType": 5123,
			"count": 702,
			"max": [ 481 ],
			"min": [ 0 ],
			"type": "SCALAR"
		},
		{
			"bufferView": 2,
			"byteOffset": 42768,
			"componentType": 5126,
			"count": 3104,
			"max": [ 2.293847, 1.971943, 1.536165 ],
			"min": [ -0.03379524, 0.4861074, -1.539564 ],
			"type": "VEC3"
		},
		{
			"bufferView": 2,
			"byteOffset": 80016,
			"componentType": 5126,
			"count": 3104,
			"max": [ 0.9449923, 0.9910989, 0.9968102 ],
			"min": [ -0.9662163, -0.9988474, -0.9968101 ],
			"type": "VEC3"
		},
		{
			"bufferView": 4,
			"byteOffset": 14256,
			"componentType": 5123,
			"count": 3104,
			"max": [ 2, 0, 0, 0 ],
			"min": [ 1, 0, 0, 0 ],
			"type": "VEC4"
		},
		{
			"bufferView": 3,
			"byteOffset": 57024,
			"componentType": 5126,
			"count": 3104,
			"max": [ 1, 0, 0, 0 ],
			"min": [ 1, 0, 0, 0 ],
			"type": "VEC4"
		},
		{
			"bufferView": 3,
			"byteOffset": 106688,
			"componentType": 5126,
			"count": 3104,
			"max": [ 1, 0, 0, -1 ],
			"min": [ 1, 0, 0, -1 ],
			"type": "VEC4"
		},
		{
			"bufferView": 0,
			"byteOffset": 5388,
			"componentType": 5123,
			"count": 4692,
			"max": [ 3103 ],
			"min": [ 0 ],
			"type": "SCALAR"
		},
		{
			"bufferView": 5,
			"byteOffset": 0,
			"componentType": 5126,
			"count": 3,
			"max": [ 0.5893818, 0.5191023, 3.273146E-08, 0, 0, 0.5893818, 8.048918E-08, 0, 5.539086E-08, 0, 0.5893818, 0, 0.3966657, 0, 0.719587, 1 ],
			"min": [ 0, 0, 0, 0, -0.5191023, 0, 0, 0, 0, -6.694557E-08, 0, 0, 0, -0.361516, -0.6890962, 0 ],
			"type": "MAT4"
		},
		{
			"bufferView": 1,
			"byteOffset": 0,
			"componentType": 5126,
			"count": 92,
			"max": [ 3.049819 ],
			"min": [ 0 ],
			"type": "SCALAR"
		},
		{
			"bufferView": 6,
			"byteOffset": 0,
			"componentType": 5126,
			"count": 92,
			"max": [ -0.1280674, 1.132803, 0 ],
			"min": [ -0.1280674, 0.1650028, 0 ],
			"type": "VEC3"
		},
		{
			"bufferView": 7,
			"byteOffset": 0,
			"componentType": 5126,
			"count": 92,
			"max": [ 0, 0, 0, 1 ],
			"min": [ 0, 0, 0, 1 ],
			"type": "VEC4"
		},
		{
			"bufferView": 6,
			"byteOffset": 1104,
			"componentType": 5126,
			"count": 92,
			"max": [ 1, 1, 1 ],
			"min": [ 1, 1, 1 ],
			"type": "VEC3"
		},
		{
			"bufferView": 1,
			"byteOffset": 368,
			"componentType": 5126,
			"count": 92,
			"max": [ 3.049819 ],
			"min": [ 0 ],
			"type": "SCALAR"
		},
		{
			"bufferView": 6,
			"byteOffset": 2208,
			"componentType": 5126,
			"count": 92,
			"max": [ 0.2732861, 0.2844342, 0.6890961 ],
			"min": [ 0.2732861, 0.2844342, 0.6890961 ],
			"type": "VEC3"
		},
		{
			"bufferView": 7,
			"byteOffset": 1472,
			"componentType": 5126,
			"count": 92,
			"max": [ 0.2220559, -0.02575026, -0.4625001, 0.858097 ],
			"min": [ 0.01539095, -0.3715149, -0.5128879, 0.7737945 ],
			"type": "VEC4"
		},
		{
			"bufferView": 6,
			"byteOffset": 3312,
			"componentType": 5126,
			"count": 92,
			"max": [ 1, 0.9999998, 0.9999999 ],
			"min": [ 1, 0.9999998, 0.9999999 ],
			"type": "VEC3"
		},
		{
			"bufferView": 1,
			"byteOffset": 736,
			"componentType": 5126,
			"count": 92,
			"max": [ 3.049819 ],
			"min": [ 0 ],
			"type": "SCALAR"
		},
		{
			"bufferView": 6,
			"byteOffset": 4416,
			"componentType": 5126,
			"count": 92,
			"max": [ 0.2732861, 0.2844342, -0.7195871 ],
			"min": [ 0.2732861, 0.2844342, -0.7195871 ],
			"type": "VEC3"
		},
		{
			"bufferView": 7,
			"byteOffset": 2944,
			"componentType": 5126,
			"count": 92,
			"max": [ -0.01067678, 0.2553937, -0.4898098, 0.8582266 ],
			"min": [ -0.1526499, 0.01786286, -0.5129655, 0.8194857 ],
			"type": "VEC4"
		},
		{
			"bufferView": 6,
			"byteOffset": 5520,
			"componentType": 5126,
			"count": 92,
			"max": [ 0.9999999, 0.9999999, 1 ],
			"min": [ 0.9999999, 0.9999999, 1 ],
			"type": "VEC3"
		},
		{
			"bufferView": 5,
			"byteOffset": 192,
			"componentType": 5126,
			"count": 3,
			"max": [ 0.5893818, 0.5191023, 3.273146E-08, 0, 0, 0.5893818, 8.048918E-08, 0, 5.539086E-08, 0, 0.5893818, 0, 0.3966657, 0, 0.719587, 1 ],
			"min": [ 0, 0, 0, 0, -0.5191023, 0, 0, 0, 0, -6.694557E-08, 0, 0, 0, -0.361516, -0.6890962, 0 ],
			"type": "MAT4"
		},
		{
			"bufferView": 5,
			"byteOffset": 384,
			"componentType": 5126,
			"count": 3,
			"max": [ 0.5893818, 0.5191023, 3.273146E-08, 0, 0, 0.5893818, 8.048918E-08, 0, 5.539086E-08, 0, 0.5893818, 0, 0.3966657, 0, 0.719587, 1 ],
			"min": [ 0, 0, 0, 0, -0.5191023, 0, 0, 0, 0, -6.694557E-08, 0, 0, 0, -0.361516, -0.6890962, 0 ],
			"type": "MAT4"
		},
		{
			"bufferView": 5,
			"byteOffset": 576,
			"componentType": 5126,
			"count": 3,
			"max": [ 0.5893818, 0.5191023, 3.273146E-08, 0, 0, 0.5893818, 8.048918E-08, 0, 5.539086E-08, 0, 0.5893818, 0, 0.3966657, 0, 0.719587, 1 ],
			"min": [ 0, 0, 0, 0, -0.5191023, 0, 0, 0, 0, -6.694557E-08, 0, 0, 0, -0.361516, -0.6890962, 0 ],
			"type": "MAT4"
		},
		{
			"bufferView": 5,
			"byteOffset": 768,
			"componentType": 5126,
			"count": 3,
			"max": [ 0.5893818, 0.5191023, 3.273146E-08, 0, 0, 0.5893818, 8.048918E-08, 0, 5.539086E-08, 0, 0.5893818, 0, 0.3966657, 0, 0.719587, 1 ],
			"min": [ 0, 0, 0, 0, -0.5191023, 0, 0, 0, 0, -6.694557E-08, 0, 0, 0, -0.361516, -0.6890962, 0 ],
			"type": "MAT4"
		},
		{
			"bufferView": 5,
			"byteOffset": 960,
			"componentType": 5126,
			"count": 3,
			"max": [ 0.5893818, 0.5191023, 3.273146E-08, 0, 0, 0.5893818, 8.048918E-08, 0, 5.539086E-08, 0, 0.5893818, 0, 0.3966657, 0, 0.719587, 1 ],
			"min": [ 0, 0, 0, 0, -0.5191023, 0, 0, 0, 0, -6.694557E-08, 0, 0, 0, -0.361516, -0.6890962, 0 ],
			"type": "MAT4"
		},
		{
			"bufferView": 5,
			"byteOffset": 1152,
			"componentType": 5126,
			"count": 3,
			"max": [ 0.5893818, 0.5191023, 3.273146E-08, 0, 0, 0.5893818, 8.048918E-08, 0, 5.539086E-08, 0, 0.5893818, 0, 0.3966657, 0, 0.719587, 1 ],
			"min": [ 0, 0, 0, 0, -0.5191023, 0, 0, 0, 0, -6.694557E-08, 0, 0, 0, -0.361516, -0.6890962, 0 ],
			"type": "MAT4"
		},
		{
			"bufferView": 5,
			"byteOffset": 1344,
			"componentType": 5126,
			"count": 3,
			"max": [ 0.5893818, 0.5191023, 3.273146E-08, 0, 0, 0.5893818, 8.048918E-08, 0, 5.539086E-08, 0, 0.5893818, 0, 0.3966657, 0, 0.719587, 1 ],
			"min": [ 0, 0, 0, 0, -0.5191023, 0, 0, 0, 0, -6.694557E-08, 0, 0, 0, -0.361516, -0.6890962, 0 ],
			"type": "MAT4"
		},
		{
			"bufferView": 1,
			"byteOffset": 1104,
			"componentType": 5126,
			"count": 92,
			"max": [ 3.049819 ],
			"min": [ 0 ],
			"type": "SCALAR"
		},
		{
			"bufferView": 6,
			"byteOffset": 6624,
			"componentType": 5126,
			"count": 92,
			"max": [ -0.1280674, 1.132803, 0 ],
			"min": [ -0.1280674, 0.1650028, 0 ],
			"type": "VEC3"
		},
		{
			"bufferView": 7,
			"byteOffset": 4416,
			"componentType": 5126,
			"count": 92,
			"max": [ 0, 0, 0, 1 ],
			"min": [ 0, 0, 0, 1 ],
			"type": "VEC4"
		},
		{
			"bufferView": 6,
			"byteOffset": 7728,
			"componentType": 5126,
			"count": 92,
			"max": [ 1, 1, 1 ],
			"min": [ 1, 1, 1 ],
			"type": "VEC3"
		},
		{
			"bufferView": 1,
			"byteOffset": 1472,
			"componentType": 5126,
			"count": 92,
			"max": [ 3.049819 ],
			"min": [ 0 ],
			"type": "SCALAR"
		},
		{
			"bufferView": 6,
			"byteOffset": 8832,
			"componentType": 5126,
			"count": 92,
			"max": [ 0.2732861, 0.2844342, 0.6890961 ],
			"min": [ 0.2732861, 0.2844342, 0.6890961 ],
			"type": "VEC3"
		},
		{
			"bufferView": 7,
			"byteOffset": 5888,
			"componentType": 5126,
			"count": 92,
			"max": [ 0.2220559, -0.02575026, -0.4625001, 0.858097 ],
			"min": [ 0.01539095, -0.3715149, -0.5128879, 0.7737945 ],
			"type": "VEC4"
		},
		{
			"bufferView": 6,
			"byteOffset": 9936,
			"componentType": 5126,
			"count": 92,
			"max": [ 1, 0.9999998, 0.9999999 ],
			"min": [ 1, 0.9999998, 0.9999999 ],
			"type": "VEC3"
		},
		{
			"bufferView": 1,
			"byteOffset": 1840,
			"componentType": 5126,
			"count": 92,
			"max": [ 3.049819 ],
			"min": [ 0 ],
			"type": "SCALAR"
		},
		{
			"bufferView": 6,
			"byteOffset": 11040,
			"componentType": 5126,
			"count": 92,
			"max": [ 0.2732861, 0.2844342, -0.7195871 ],
			"min": [ 0.2732861, 0.2844342, -0.7195871 ],
			"type": "VEC3"
		},
		{
			"bufferView": 7,
			"byteOffset": 7360,
			"componentType": 5126,
			"count": 92,
			"max": [ -0.01067678, 0.2553937, -0.4898098, 0.8582266 ],
			"min": [ -0.1526499, 0.01786286, -0.5129655, 0.8194857 ],
			"type": "VEC4"
		},
		{
			"bufferView": 6,
			"byteOffset": 12144,
			"componentType": 5126,
			"count": 92,
			"max": [ 0.9999999, 0.9999999, 1 ],
			"min": [ 0.9999999, 0.9999999, 1 ],
			"type": "VEC3"
		}
	],
	"animations": [
		{
			"name": "ArmatureAction-001",
			"channels": [
				{
					"sampler": 0,
					"target": {
						"node": 5,
						"path": "translation"
					}
				},
				{
					"sampler": 1,
					"target": {
						"node": 5,
						"path": "rotation"
					}
				},
				{
					"sampler": 2,
					"target": {
						"node": 5,
						"path": "scale"
					}
				},
				{
					"sampler": 3,
					"target": {
						"node": 6,
						"path": "translation"
					}
				},
				{
					"sampler": 4,
					"target": {
						"node": 6,
						"path": "rotation"
					}
				},
				{
					"sampler": 5,
					"target": {
						"node": 6,
						"path": "scale"
					}
				},
				{
					"sampler": 6,
					"target": {
						"node": 7,
						"path": "translation"
					}
				},
				{
					"sampler": 7,
					"target": {
						"node": 7,
						"path": "rotation"
					}
				},
				{
					"sampler": 8,
					"target": {
						"node": 7,
						"path": "scale"
					}
				}
			],
			"samplers": [
				{
					"input": 25,
					"interpolation": "LINEAR",
					"output": 26
				},
				{
					"input": 25,
					"interpolation": "LINEAR",
					"output": 27
				},
				{
					"input": 25,
					"interpolation": "LINEAR",
					"output": 28
				},
				{
					"input": 29,
					"interpolation": "LINEAR",
					"output": 30
				},
				{
					"input": 29,
					"interpolation": "LINEAR",
					"output": 31
				},
				{
					"input": 29,
					"interpolation": "LINEAR",
					"output": 32
				},
				{
					"input": 33,
					"interpolation": "LINEAR",
					"output": 34
				},
				{
					"input": 33,
					"interpolation": "LINEAR",
					"output": 35
				},
				{
					"input": 33,
					"interpolation": "LINEAR",
					"output": 36
				}
			]
		},
		{
			"name": "bird1@ArmatureAction-001",
			"channels": [
				{
					"sampler": 0,
					"target": {
						"node": 15,
						"path": "translation"
					}
				},
				{
					"sampler": 1,
					"target": {
						"node": 15,
						"path": "rotation"
					}
				},
				{
					"sampler": 2,
					"target": {
						"node": 15,
						"path": "scale"
					}
				},
				{
					"sampler": 3,
					"target": {
						"node": 1,
						"path": "translation"
					}
				},
				{
					"sampler": 4,
					"target": {
						"node": 1,
						"path": "rotation"
					}
				},
				{
					"sampler": 5,
					"target": {
						"node": 1,
						"path": "scale"
					}
				},
				{
					"sampler": 6,
					"target": {
						"node": 2,
						"path": "translation"
					}
				},
				{
					"sampler": 7,
					"target": {
						"node": 2,
						"path": "rotation"
					}
				},
				{
					"sampler": 8,
					"target": {
						"node": 2,
						"path": "scale"
					}
				}
			],
			"samplers": [
				{
					"input": 44,
					"interpolation": "LINEAR",
					"output": 45
				},
				{
					"input": 44,
					"interpolation": "LINEAR",
					"output": 46
				},
				{
					"input": 44,
					"interpolation": "LINEAR",
					"output": 47
				},
				{
					"input": 48,
					"interpolation": "LINEAR",
					"output": 49
				},
				{
					"input": 48,
					"interpolation": "LINEAR",
					"output": 50
				},
				{
					"input": 48,
					"interpolation": "LINEAR",
					"output": 51
				},
				{
					"input": 52,
					"interpolation": "LINEAR",
					"output": 53
				},
				{
					"input": 52,
					"interpolation": "LINEAR",
					"output": 54
				},
				{
					"input": 52,
					"interpolation": "LINEAR",
					"output": 55
				}
			]
		}
	],
	"buffers": [
		{
			"byteLength": 353300,
			"uri": "scene.bin"
		}
	],
	"bufferViews": [
		{
			"buffer": 0,
			"byteLength": 14772,
			"target": 34963,
			"byteOffset": 316448
		},
		{
			"buffer": 0,
			"byteLength": 2208,
			"byteOffset": 0
		},
		{
			"buffer": 0,
			"byteLength": 117264,
			"target": 34962,
			"byteStride": 12,
			"byteOffset": 2208
		},
		{
			"buffer": 0,
			"byteLength": 156352,
			"target": 34962,
			"byteStride": 16,
			"byteOffset": 119472
		},
		{
			"buffer": 0,
			"byteLength": 39088,
			"byteStride": 8,
			"byteOffset": 275824
		},
		{
			"buffer": 0,
			"byteLength": 1536,
			"byteStride": 64,
			"byteOffset": 314912
		},
		{
			"buffer": 0,
			"byteLength": 13248,
			"byteStride": 12,
			"byteOffset": 331220
		},
		{
			"buffer": 0,
			"byteLength": 8832,
			"byteStride": 16,
			"byteOffset": 344468
		}
	],
	"extensionsRequired": [
		"Sein_node",
		"Sein_physicBody",
		"Sein_animator",
		"Sein_customMaterial",
		"Sein_renderer"
	],
	"extensionsUsed": [
		"Sein_node",
		"Sein_physicBody",
		"Sein_animator",
		"Sein_customMaterial",
		"Sein_renderer"
	],
	"materials": [
		{
			"pbrMetallicRoughness": {
				"baseColorFactor": [0.4588236, 0.4784313, 0.4745098, 1],
				"metallicFactor": 0.1005917,
				"roughnessFactor": 0.7810651
			},
			"emissiveFactor": [0, 0, 0],
			"doubleSided": false,
			"name": "Material.041_2"
		},
		{
			"pbrMetallicRoughness": {
				"baseColorFactor": [1, 0.7764705, 0.05882353, 1],
				"metallicFactor": 0.09467456,
				"roughnessFactor": 0.6804734
			},
			"emissiveFactor": [0, 0, 0],
			"doubleSided": false,
			"name": "Material.002_0"
		},
		{
			"pbrMetallicRoughness": {
				"baseColorFactor": [0.3098039, 0.3686274, 0.3568627, 1],
				"metallicFactor": 0.07692308,
				"roughnessFactor": 0.7218935
			},
			"emissiveFactor": [0, 0, 0],
			"doubleSided": false,
			"name": "Material.042_3"
		},
		{
			"pbrMetallicRoughness": {
				"baseColorFactor": [0.4352942, 0.7490196, 0.2627451, 1],
				"metallicFactor": 0.07692308,
				"roughnessFactor": 0.627219
			},
			"emissiveFactor": [0, 0, 0],
			"doubleSided": false,
			"name": "Material.040_1"
		}
	],
	"meshes": [
		{
			"name": "Sphere.014_0_0",
			"primitives": [
				{
					"attributes":{
						"POSITION": 0,
						"NORMAL": 1,
						"JOINTS_0": 2,
						"WEIGHTS_0": 3,
						"TANGENT": 4
					},
					"indices": 5,
					"material": 0,
					"mode": 4
				}
			]
		},
		{
			"name": "Sphere.014_0_1",
			"primitives": [
				{
					"attributes":{
						"POSITION": 6,
						"NORMAL": 7,
						"JOINTS_0": 8,
						"WEIGHTS_0": 9,
						"TANGENT": 10
					},
					"indices": 11,
					"material": 1,
					"mode": 4
				}
			]
		},
		{
			"name": "Sphere.014_0_2",
			"primitives": [
				{
					"attributes":{
						"POSITION": 12,
						"NORMAL": 13,
						"JOINTS_0": 14,
						"WEIGHTS_0": 15,
						"TANGENT": 16
					},
					"indices": 17,
					"material": 2,
					"mode": 4
				}
			]
		},
		{
			"name": "Sphere.014_0_3",
			"primitives": [
				{
					"attributes":{
						"POSITION": 18,
						"NORMAL": 19,
						"JOINTS_0": 20,
						"WEIGHTS_0": 21,
						"TANGENT": 22
					},
					"indices": 23,
					"material": 3,
					"mode": 4
				}
			]
		}
	],
	"nodes": [
		{
			"name": "bird",
			"mesh": 0,
			"children": [
				13,
				12,
				11
			],
			"translation": [ 0.01465902, -0.07317758, 7.450581E-09],
			"scale": [ 0.5893818, 0.5893818, 0.5893818],
			"rotation": [0, 0, 0, 1]
,
			"skin": 0
,
			"extensions": {
				"Sein_renderer": {
					"castShadows": true,
					"receiveShadows": true
				}

			}
		},
		{
			"name": "bird.001_Bone.001",
			"translation": [ 0.2732861, 0.2844342, 0.6890961],
			"rotation": [0.01538814, -0.02574554, -0.512815, 0.857975]
		},
		{
			"name": "bird.001_Bone.002",
			"translation": [ 0.2732861, 0.2844342, -0.7195871],
			"rotation": [-0.01067486, 0.01785964, -0.5129349, 0.8581754]
		},
		{
			"name": "bird",
			"children": [
				4,
				5
			],
			"matrix": [0.1065766, 0, 0, 0, 0, 0.1065766, 0, 0, 0, 0, 0.1065766, 0, -0.0434, 0.01403372, -0.007373915, 1]
,
			"extensions": {
				"Sein_node": {
					"selfType": 2,
					"childrenType": 1,
					"className": "",
					"tag": "",
					"layer": 268435455,
					"persistent": false,
					"emitComponentsDestroy": true,
					"updateOnEverTick": true,
					"isStatic": false,
					"skipThisNode": false
				},
				"Sein_animator": {
					"defaultAnimation": "ArmatureAction-001",
					"modelAnimations": [
						"ArmatureAction-001"
					]
				}
			}
		},
		{
			"name": "bird",
			"mesh": 0,
			"children": [
				8,
				9,
				10
			],
			"translation": [ 0.01465902, -0.07317758, 7.450581E-09],
			"scale": [ 0.5893818, 0.5893818, 0.5893818],
			"rotation": [0, 0, 0, 1]
,
			"skin": 1
,
			"extensions": {
				"Sein_renderer": {
					"castShadows": true,
					"receiveShadows": true
				}

			}
		},
		{
			"name": "bird.001_Bone",
			"children": [
				6,
				7
			],
			"translation": [ -0.1280674, 0.1629567, 0],
			"rotation": [0, 0, 0, 1]
		},
		{
			"name": "bird.001_Bone.001",
			"translation": [ 0.2732861, 0.2844342, 0.6890961],
			"rotation": [0.01538814, -0.02574554, -0.512815, 0.857975]
		},
		{
			"name": "bird.001_Bone.002",
			"translation": [ 0.2732861, 0.2844342, -0.7195871],
			"rotation": [-0.01067486, 0.01785964, -0.5129349, 0.8581754]
		},
		{
			"name": "bird-1",
			"mesh": 1
,
			"skin": 2
,
			"extensions": {
				"Sein_renderer": {
					"castShadows": true,
					"receiveShadows": true
				}

			}
		},
		{
			"name": "bird-2",
			"mesh": 2
,
			"skin": 3
,
			"extensions": {
				"Sein_renderer": {
					"castShadows": true,
					"receiveShadows": true
				}

			}
		},
		{
			"name": "bird-3",
			"mesh": 3
,
			"skin": 4
,
			"extensions": {
				"Sein_renderer": {
					"castShadows": true,
					"receiveShadows": true
				}

			}
		},
		{
			"name": "bird-3",
			"mesh": 3
,
			"skin": 5
,
			"extensions": {
				"Sein_renderer": {
					"castShadows": true,
					"receiveShadows": true
				}

			}
		},
		{
			"name": "bird-2",
			"mesh": 2
,
			"skin": 6
,
			"extensions": {
				"Sein_renderer": {
					"castShadows": true,
					"receiveShadows": true
				}

			}
		},
		{
			"name": "bird-1",
			"mesh": 1
,
			"skin": 7
,
			"extensions": {
				"Sein_renderer": {
					"castShadows": true,
					"receiveShadows": true
				}

			}
		},
		{
			"name": "bird (1)",
			"children": [
				0,
				15
			],
			"matrix": [0.1065766, 0, 0, 0, 0, 0.1065766, 0, 0, 0, 0, 0.1065766, 0, 0.34, 0.01403372, -0.007373915, 1]
,
			"extensions": {
				"Sein_node": {
					"selfType": 2,
					"childrenType": 1,
					"className": "",
					"tag": "",
					"layer": 268435455,
					"persistent": false,
					"emitComponentsDestroy": true,
					"updateOnEverTick": true,
					"isStatic": false,
					"skipThisNode": false
				},
				"Sein_animator": {
					"prefix": "bird1",
					"defaultAnimation": "ArmatureAction-001",
					"modelAnimations": [
						"ArmatureAction-001"
					]
				}
			}
		},
		{
			"name": "bird.001_Bone",
			"children": [
				1,
				2
			],
			"translation": [ -0.1280674, 0.1629567, 0],
			"rotation": [0, 0, 0, 1]
		}
	],
	"scenes": [
		{
			"name":"defaultScene",
			"nodes": [
				3,
				14
			]
		}
	],
	"scene": 0,
	"skins": [
		{
			"inverseBindMatrices": 24,
			"skeleton": 14,
			"joints": [
				15,
				1,
				2
			],
			"name": "bird1_skeleton_bird"
		},
		{
			"inverseBindMatrices": 37,
			"skeleton": 3,
			"joints": [
				5,
				6,
				7
			],
			"name": "bird_skeleton_bird"
		},
		{
			"inverseBindMatrices": 38,
			"skeleton": 3,
			"joints": [
				5,
				6,
				7
			],
			"name": "bird_skeleton_bird-1"
		},
		{
			"inverseBindMatrices": 39,
			"skeleton": 3,
			"joints": [
				5,
				6,
				7
			],
			"name": "bird_skeleton_bird-2"
		},
		{
			"inverseBindMatrices": 40,
			"skeleton": 3,
			"joints": [
				5,
				6,
				7
			],
			"name": "bird_skeleton_bird-3"
		},
		{
			"inverseBindMatrices": 41,
			"skeleton": 14,
			"joints": [
				15,
				1,
				2
			],
			"name": "bird1_skeleton_bird-3"
		},
		{
			"inverseBindMatrices": 42,
			"skeleton": 14,
			"joints": [
				15,
				1,
				2
			],
			"name": "bird1_skeleton_bird-2"
		},
		{
			"inverseBindMatrices": 43,
			"skeleton": 14,
			"joints": [
				15,
				1,
				2
			],
			"name": "bird1_skeleton_bird-1"
		}
	]
}