<?xml version="1.0" encoding="UTF-8"?>
<svg width="79px" height="17px" viewBox="0 0 79 17" version="1.1" xmlns="http://www.w3.org/2000/svg" xmlns:xlink="http://www.w3.org/1999/xlink">
    <!-- Generator: Sketch 54 (76480) - https://sketchapp.com -->
    <title>sein copy</title>
    <desc>Created with Sketch.</desc>
    <g id="页面1" stroke="none" stroke-width="1" fill="none" fill-rule="evenodd">
        <g id="homepage" transform="translate(-1432.000000, -1464.000000)" fill="#FFFFFF" fill-rule="nonzero">
            <g id="footer" transform="translate(0.000000, 1406.000000)">
                <g id="sein-copy" transform="translate(1432.000000, 58.000000)">
                    <path d="M0.790697674,0 L16.2093023,0 C16.6459926,1.50624576e-15 17,0.362436155 17,0.80952381 L17,1.77743271 C17,2.22452037 16.6459926,2.58695652 16.2093023,2.58695652 L0.790697674,2.58695652 C0.354007407,2.58695652 2.4740857e-16,2.22452037 0,1.77743271 L0,0.80952381 C-5.34791337e-17,0.362436155 0.354007407,8.21286696e-17 0.790697674,0 Z M0.790697674,14.4130435 L16.2093023,14.4130435 C16.6459926,14.4130435 17,14.7754797 17,15.2225673 L17,16.1904762 C17,16.6375638 16.6459926,17 16.2093023,17 L0.790697674,17 C0.354007407,17 5.34791337e-17,16.6375638 0,16.1904762 L0,15.2225673 C-5.34791337e-17,14.7754797 0.354007407,14.4130435 0.790697674,14.4130435 Z M0.790697674,4.80434782 L2.8095193,4.80434782 C3.5072744,4.80434782 4.07291665,5.38345776 4.07291665,6.09782609 C4.07291665,6.81219442 3.5072744,7.39130436 2.8095193,7.39130436 L0.790697674,7.39130436 C0.354007407,7.39130436 5.34791337e-17,7.02886821 0,6.58178055 L0,5.61387163 C-5.34791337e-17,5.16678397 0.354007407,4.80434782 0.790697674,4.80434782 Z M0.790697674,9.60869564 L8.12201931,9.60869564 C8.81977439,9.60869564 9.38541665,10.1878056 9.38541665,10.9021739 C9.38541665,11.6165422 8.81977439,12.1956522 8.12201931,12.1956522 L0.790697674,12.1956522 C0.354007407,12.1956522 5.34791337e-17,11.833216 0,11.3861284 L0,10.4182194 C-5.34791337e-17,9.97113179 0.354007407,9.60869564 0.790697674,9.60869564 Z M13.305064,9.60869564 L16.2093023,9.60869564 C16.6459926,9.60869564 17,9.97113179 17,10.4182194 L17,11.3861284 C17,11.833216 16.6459926,12.1956522 16.2093023,12.1956522 L13.305064,12.1956522 C12.6073089,12.1956522 12.0416667,11.6165422 12.0416667,10.9021739 C12.0416667,10.1878056 12.6073089,9.60869564 13.305064,9.60869564 Z M7.63839738,4.80434782 L16.2093023,4.80434782 C16.6459926,4.80434782 17,5.16678397 17,5.61387163 L17,6.58178055 C17,7.02886821 16.6459926,7.39130436 16.2093023,7.39130436 L7.63839738,7.39130436 C6.94064227,7.39130436 6.375,6.81219442 6.375,6.09782609 C6.375,5.38345776 6.94064227,4.80434782 7.63839738,4.80434782 Z" id="Combined-Shape"></path>
                    <path d="M23.3099311,12.9673768 C22.9966666,12.7379039 22.9208779,12.5059932 23.0825628,12.2716378 L23.6661414,11.4221039 C23.8581422,11.1438069 24.1385603,11.1291599 24.507404,11.3781625 C24.7903526,11.5685762 25.1604539,11.76509 25.617719,11.9677097 C26.0749842,12.1703295 26.5562422,12.2716378 27.0615076,12.2716378 C27.4151933,12.2716378 27.7562423,12.2325792 28.0846648,12.1544607 C28.4130873,12.0763423 28.6631899,11.92499 28.8349801,11.7003995 C29.0067703,11.4758089 29.0926642,11.2097219 29.0926642,10.9021305 C29.0926642,10.6824223 29.0547698,10.4895703 28.97898,10.3235686 C28.9031902,10.1575669 28.779402,10.0208616 28.6076118,9.91344872 C28.4358216,9.80603586 28.2589814,9.71571275 28.0770859,9.64247669 C27.7587687,9.5155342 27.3583519,9.3898142 26.8758235,9.2653129 C26.3932951,9.14081163 25.9170896,8.99067998 25.4471929,8.81491344 C25.0278226,8.65867655 24.6438267,8.44385399 24.2951936,8.17043942 C23.9465605,7.89702481 23.6762476,7.58943802 23.4842467,7.24766977 C23.2922459,6.90590155 23.1962469,6.44940365 23.1962469,5.87816246 C23.1962469,5.19950836 23.423613,4.61851107 23.8783518,4.13515313 C24.3330906,3.65179519 24.8560324,3.34176722 25.4471929,3.20505992 C26.0383533,3.06835262 26.6345575,3 27.2358233,3 C27.8320364,3 28.4471877,3.08788194 29.0812958,3.26364847 C29.7154038,3.43941499 30.1941355,3.65911985 30.5175053,3.92276964 C30.8358225,4.18153702 30.9141374,4.41588887 30.7524525,4.62583222 L30.1385582,5.42410119 C29.9313994,5.6975158 29.6535076,5.71948629 29.3048745,5.49001332 C29.0825578,5.3435412 28.77814,5.17998314 28.391612,4.99933421 C28.005084,4.81868529 27.6021409,4.72836219 27.1827707,4.72836219 C26.8846641,4.72836219 26.6105618,4.75277383 26.3604554,4.80159787 C26.1103491,4.85042191 25.8892988,4.96759782 25.6972979,5.15312916 C25.5052971,5.3386605 25.4092981,5.56813001 25.4092981,5.84154462 C25.4092981,6.1051944 25.4800342,6.31879635 25.6215085,6.48235687 C25.7629828,6.64591739 25.9196127,6.76797562 26.091403,6.84853529 C26.2631932,6.92909495 26.4375071,6.99622698 26.61435,7.04993341 C27.1600366,7.22081754 27.6476103,7.37094919 28.0770859,7.50033288 C28.5065614,7.62971659 28.9031888,7.77252474 29.2669798,7.92876165 C29.7722452,8.1484698 30.1587674,8.36817467 30.426558,8.58788282 C30.6943486,8.80759099 30.9153989,9.10785427 31.0897155,9.48868175 C31.264032,9.86950922 31.351189,10.3235659 31.351189,10.8508655 C31.351189,11.6320501 31.0935075,12.2777383 30.5781369,12.7879494 C30.0627662,13.2981606 29.4905618,13.6277178 28.8615064,13.7766312 C28.232451,13.9255445 27.619826,14 27.0236129,14 C26.1444511,14 25.4295114,13.918221 24.8787722,13.7546605 C24.3280329,13.5910999 23.8050911,13.3286747 23.3099311,12.9673768 Z M33.6248717,13.7509987 C33.271186,13.7509987 33.0943458,13.5679113 33.0943458,13.201731 L33.0943458,3.79826897 C33.0943458,3.43208872 33.271186,3.24900133 33.6248717,3.24900133 L40.1276044,3.24900133 C40.5065534,3.24900133 40.6960249,3.40767706 40.6960249,3.72503329 L40.6960249,4.58921438 C40.6960249,4.90657061 40.5065534,5.06524634 40.1276044,5.06524634 L35.3073969,5.06524634 L35.3073969,7.39414114 L39.7259205,7.39414114 C40.1048695,7.39414114 40.294341,7.55281689 40.294341,7.8701731 L40.294341,8.73435419 C40.294341,9.05171044 40.1048695,9.21038615 39.7259205,9.21038615 L35.3073969,9.21038615 L35.3073969,11.9347537 L40.3701305,11.9347537 C40.7490795,11.9347537 40.938551,12.0934294 40.938551,12.4107856 L40.938551,13.2749667 C40.938551,13.592323 40.7490795,13.7509987 40.3701305,13.7509987 L33.6248717,13.7509987 Z M43.3259181,13.7509987 C42.9722323,13.7509987 42.7953922,13.5679113 42.7953922,13.201731 L42.7953922,3.79826897 C42.7953922,3.43208872 42.9722323,3.24900133 43.3259181,3.24900133 L44.4779173,3.24900133 C44.8316031,3.24900133 45.0084432,3.43208872 45.0084432,3.79826897 L45.0084432,13.201731 C45.0084432,13.5679113 44.8316031,13.7509987 44.4779173,13.7509987 L43.3259181,13.7509987 Z M47.9642308,13.7509987 C47.610545,13.7509987 47.4337049,13.5679113 47.4337049,13.201731 L47.4337049,3.79826897 C47.4337049,3.43208872 47.610545,3.24900133 47.9642308,3.24900133 L49.0859142,3.24900133 C49.5204424,3.24900133 49.8488599,3.41988289 50.0711768,3.76165113 L53.9364375,9.75965381 L53.98949,9.75965381 C53.9642268,9.4667096 53.9515954,9.17376977 53.9515954,8.88082556 L53.9515954,3.79826897 C53.9515954,3.43208872 54.1284356,3.24900133 54.4821213,3.24900133 L55.6341205,3.24900133 C55.9878063,3.24900133 56.1646464,3.43208872 56.1646464,3.79826897 L56.1646464,13.201731 C56.1646464,13.5679113 55.9878063,13.7509987 55.6341205,13.7509987 L54.5882263,13.7509987 C54.1536984,13.7509987 53.8252806,13.5801171 53.602964,13.2383489 L49.6619138,7.13049269 L49.6088613,7.13049269 C49.6341245,7.42343689 49.6467559,7.71637669 49.6467559,8.0093209 L49.6467559,13.201731 C49.6467559,13.5679113 49.4699158,13.7509987 49.11623,13.7509987 L47.9642308,13.7509987 Z M59.3326443,13.7509987 C58.9789585,13.7509987 58.8021184,13.5679113 58.8021184,13.201731 L58.8021184,12.2203728 C58.8021184,11.8541926 58.9789585,11.6711052 59.3326443,11.6711052 L60.4846435,11.6711052 C60.8383293,11.6711052 61.0151698,11.8541926 61.0151698,12.2203728 L61.0151698,13.201731 C61.0151698,13.5679113 60.8383293,13.7509987 60.4846435,13.7509987 L59.3326443,13.7509987 Z M63.1221155,13.6118509 C62.8543248,13.4604964 62.7532735,13.277409 62.8189581,13.0625832 L63.1372734,12.0592543 C63.2282211,11.7711925 63.4656925,11.7418986 63.8496941,11.9713715 C64.1781167,12.17155 64.5444284,12.2716378 64.9486408,12.2716378 C65.5044326,12.2716378 65.8669551,12.0861093 66.0362189,11.7150466 C66.205483,11.3439839 66.2901137,10.7263692 66.2901137,9.86218377 L66.2901137,3.79826897 C66.2901137,3.43208872 66.4669538,3.24900133 66.8206396,3.24900133 L67.9726388,3.24900133 C68.3263245,3.24900133 68.5031647,3.43208872 68.5031647,3.79826897 L68.5031647,9.7157124 C68.5031647,11.5124369 68.1911682,12.675652 67.5671653,13.2053928 C66.9431628,13.7351336 66.0779088,14 64.9713775,14 C64.1983218,14 63.5819072,13.8706183 63.1221155,13.6118509 Z M70.9587421,12.9673768 C70.6454775,12.7379039 70.569689,12.5059932 70.731374,12.2716378 L71.3149523,11.4221039 C71.5069531,11.1438069 71.7873714,11.1291599 72.1562151,11.3781625 C72.4391636,11.5685762 72.8092649,11.76509 73.2665301,11.9677097 C73.7237951,12.1703295 74.2050533,12.2716378 74.7103187,12.2716378 C75.0640045,12.2716378 75.4050534,12.2325792 75.733476,12.1544607 C76.0618982,12.0763423 76.312001,11.92499 76.4837913,11.7003995 C76.6555812,11.4758089 76.7414753,11.2097219 76.7414753,10.9021305 C76.7414753,10.6824223 76.7035807,10.4895703 76.6277912,10.3235686 C76.5520013,10.1575669 76.428213,10.0208616 76.2564227,9.91344872 C76.0846325,9.80603586 75.9077923,9.71571275 75.7258968,9.64247669 C75.4075799,9.5155342 75.0071628,9.3898142 74.5246343,9.2653129 C74.0421062,9.14081163 73.5659007,8.99067998 73.096004,8.81491344 C72.6766337,8.65867655 72.2926376,8.44385399 71.9440044,8.17043942 C71.5953717,7.89702481 71.3250586,7.58943802 71.1330579,7.24766977 C70.9410571,6.90590155 70.845058,6.44940365 70.845058,5.87816246 C70.845058,5.19950836 71.0724239,4.61851107 71.5271626,4.13515313 C71.9819018,3.65179519 72.5048434,3.34176722 73.096004,3.20505992 C73.6871642,3.06835262 74.2833686,3 74.8846341,3 C75.4808473,3 76.0959988,3.08788194 76.7301066,3.26364847 C77.3642147,3.43941499 77.8429464,3.65911985 78.1663164,3.92276964 C78.4846334,4.18153702 78.5629483,4.41588887 78.4012637,4.62583222 L77.7873692,5.42410119 C77.5802105,5.6975158 77.3023187,5.71948629 76.9536856,5.49001332 C76.7313686,5.3435412 76.4269509,5.17998314 76.0404229,4.99933421 C75.6538948,4.81868529 75.250952,4.72836219 74.8315816,4.72836219 C74.5334752,4.72836219 74.2593729,4.75277383 74.0092663,4.80159787 C73.7591601,4.85042191 73.5381097,4.96759782 73.3461089,5.15312916 C73.1541081,5.3386605 73.0581091,5.56813001 73.0581091,5.84154462 C73.0581091,6.1051944 73.1288453,6.31879635 73.2703194,6.48235687 C73.4117938,6.64591739 73.5684238,6.76797562 73.740214,6.84853529 C73.9120042,6.92909495 74.0863182,6.99622698 74.2631611,7.04993341 C74.8088477,7.22081754 75.2964212,7.37094919 75.7258968,7.50033288 C76.1553724,7.62971659 76.5519996,7.77252474 76.915791,7.92876165 C77.4210561,8.1484698 77.8075783,8.36817467 78.075369,8.58788282 C78.3431596,8.80759099 78.56421,9.10785427 78.7385264,9.48868175 C78.9128432,9.86950922 79,10.3235659 79,10.8508655 C79,11.6320501 78.7423184,12.2777383 78.226948,12.7879494 C77.7115773,13.2981606 77.1393727,13.6277178 76.5103175,13.7766312 C75.881262,13.9255445 75.268637,14 74.6724238,14 C73.793262,14 73.0783223,13.918221 72.5275832,13.7546605 C71.976844,13.5910999 71.453902,13.3286747 70.9587421,12.9673768 Z" id="SEIN.JS"></path>
                </g>
            </g>
        </g>
    </g>
</svg>