<?xml version="1.0" encoding="UTF-8"?>
<svg width="104px" height="22px" viewBox="0 0 104 22" version="1.1" xmlns="http://www.w3.org/2000/svg" xmlns:xlink="http://www.w3.org/1999/xlink">
    <!-- Generator: Sketch 52.2 (67145) - http://www.bohemiancoding.com/sketch -->
    <title>sein</title>
    <desc>Created with Sketch.</desc>
    <defs>
        <linearGradient x1="100%" y1="81.3322368%" x2="0%" y2="0%" id="linearGradient-1">
            <stop stop-color="#3FBB6C" offset="0%"></stop>
            <stop stop-color="#49DB74" offset="100%"></stop>
        </linearGradient>
    </defs>
    <g id="Page-1" stroke="none" stroke-width="1" fill="none" fill-rule="evenodd">
        <g id="homepage" transform="translate(-390.000000, -19.000000)" fill-rule="nonzero">
            <g id="导航条">
                <g id="sein" transform="translate(390.000000, 19.000000)">
                    <path d="M1.02325581,0 L20.9767442,0 C21.5418728,1.94925922e-15 22,0.469035024 22,1.04761905 L22,2.30020704 C22,2.87879106 21.5418728,3.34782609 20.9767442,3.34782609 L1.02325581,3.34782609 C0.458127233,3.34782609 3.20175796e-16,2.87879106 0,2.30020704 L0,1.04761905 C-6.92082907e-17,0.469035024 0.458127233,1.06284161e-16 1.02325581,0 Z M1.02325581,18.6521739 L20.9767442,18.6521739 C21.5418728,18.6521739 22,19.121209 22,19.699793 L22,20.952381 C22,21.530965 21.5418728,22 20.9767442,22 L1.02325581,22 C0.458127233,22 6.92082907e-17,21.530965 0,20.952381 L0,19.699793 C-6.92082907e-17,19.121209 0.458127233,18.6521739 1.02325581,18.6521739 Z M1.02325581,6.2173913 L3.6358485,6.2173913 C4.53882569,6.2173913 5.27083332,6.96682769 5.27083332,7.89130435 C5.27083332,8.81578102 4.53882569,9.56521741 3.6358485,9.56521741 L1.02325581,9.56521741 C0.458127233,9.56521741 6.92082907e-17,9.09618239 0,8.51759836 L0,7.26501034 C-6.92082907e-17,6.68642632 0.458127233,6.2173913 1.02325581,6.2173913 Z M1.02325581,12.4347826 L10.5108485,12.4347826 C11.4138257,12.4347826 12.1458333,13.184219 12.1458333,14.1086956 C12.1458333,15.0331723 11.4138257,15.7826087 10.5108485,15.7826087 L1.02325581,15.7826087 C0.458127233,15.7826087 6.92082907e-17,15.3135737 0,14.7349897 L0,13.4824016 C-6.92082907e-17,12.9038176 0.458127233,12.4347826 1.02325581,12.4347826 Z M17.2183182,12.4347826 L20.9767442,12.4347826 C21.5418728,12.4347826 22,12.9038176 22,13.4824016 L22,14.7349897 C22,15.3135737 21.5418728,15.7826087 20.9767442,15.7826087 L17.2183182,15.7826087 C16.315341,15.7826087 15.5833333,15.0331723 15.5833333,14.1086956 C15.5833333,13.184219 16.315341,12.4347826 17.2183182,12.4347826 Z M9.88498485,6.2173913 L20.9767442,6.2173913 C21.5418728,6.2173913 22,6.68642632 22,7.26501034 L22,8.51759836 C22,9.09618239 21.5418728,9.56521741 20.9767442,9.56521741 L9.88498485,9.56521741 C8.98200764,9.56521741 8.25,8.81578102 8.25,7.89130435 C8.25,6.96682769 8.98200764,6.2173913 9.88498485,6.2173913 Z" id="Combined-Shape" fill="url(#linearGradient-1)"></path>
                    <path d="M30.4095518,17.5918775 C29.9955951,17.2789598 29.8954458,16.962718 30.1091009,16.6431425 L30.8802582,15.4846871 C31.1339737,15.1051912 31.5045261,15.085218 31.9919267,15.424767 C32.365823,15.6844221 32.8548855,15.9523954 33.4591287,16.2286951 C34.063372,16.5049947 34.6993201,16.6431425 35.3669922,16.6431425 C35.8343626,16.6431425 36.2850345,16.5898807 36.7190214,16.4833555 C37.1530082,16.3768304 37.4835009,16.1704409 37.7105094,15.8641811 C37.9375179,15.5579212 38.0510205,15.1950753 38.0510205,14.7756325 C38.0510205,14.4760304 38.0009458,14.2130504 37.900795,13.9866844 C37.8006442,13.7603185 37.637067,13.5739022 37.4100585,13.4274301 C37.18305,13.280958 36.9493683,13.1577901 36.7090063,13.0579228 C36.2883729,12.8848194 35.7592507,12.713383 35.1216239,12.5436085 C34.4839971,12.373834 33.8547256,12.1691091 33.2337906,11.9294274 C32.6796227,11.7163771 32.1721996,11.4234373 31.7115058,11.0505992 C31.2508121,10.6777611 30.8936129,10.2583246 30.6398975,9.79227696 C30.3861821,9.32622938 30.2593263,8.70373225 30.2593263,7.92476699 C30.2593263,6.99932959 30.5597743,6.20706055 31.1606791,5.54793609 C31.761584,4.88881162 32.4526142,4.46604621 33.2337906,4.27962716 C34.0149669,4.09320812 34.8028081,4 35.5973379,4 C36.3851909,4 37.1980695,4.11983901 38.035998,4.35952064 C38.8739264,4.59920226 39.5065362,4.8987998 39.9338463,5.25832224 C40.3544797,5.61118685 40.4579673,5.93075755 40.2443123,6.21704394 L39.4330948,7.30559253 C39.1593492,7.67843063 38.7921351,7.7083904 38.3314413,7.39547271 C38.0376656,7.195738 37.6353992,6.97270428 37.1246301,6.72636484 C36.613861,6.4800254 36.0814005,6.35685753 35.5272327,6.35685753 C35.1333061,6.35685753 34.7710995,6.39014614 34.4406018,6.45672437 C34.1101041,6.5233026 33.818002,6.68308794 33.5642866,6.93608522 C33.3105712,7.1890825 33.1837154,7.50199547 33.1837154,7.87483357 C33.1837154,8.234356 33.2771881,8.52563138 33.4641363,8.74866846 C33.6510845,8.97170553 33.8580597,9.13814857 34.0850682,9.24800266 C34.3120767,9.35785675 34.5424201,9.44940043 34.7761053,9.52263647 C35.4971912,9.75566028 36.1414851,9.96038526 36.7090063,10.1368176 C37.2765276,10.3132499 37.8006423,10.5079883 38.2813662,10.7210386 C38.9490383,11.0206406 39.4597997,11.3202382 39.8136659,11.6198402 C40.1675321,11.9194423 40.4596343,12.3288922 40.6899812,12.8482024 C40.920328,13.3675126 41.0354997,13.9866808 41.0354997,14.7057257 C41.0354997,15.7709774 40.6949921,16.6514613 40.0139666,17.3472037 C39.332941,18.0429462 38.5768138,18.4923425 37.745562,18.6954061 C36.9143103,18.8984697 36.1047701,19 35.316917,19 C34.1551676,19 33.2104258,18.8884831 32.4826632,18.6654461 C31.7549007,18.442409 31.0638704,18.0845564 30.4095518,17.5918775 Z M44.0400091,18.6604527 C43.5726386,18.6604527 43.3389569,18.4107881 43.3389569,17.9114514 L43.3389569,5.0885486 C43.3389569,4.58921189 43.5726386,4.33954727 44.0400091,4.33954727 L52.6329059,4.33954727 C53.1336598,4.33954727 53.3840329,4.55592327 53.3840329,4.98868176 L53.3840329,6.16711052 C53.3840329,6.59986901 53.1336598,6.81624501 52.6329059,6.81624501 L46.2633459,6.81624501 L46.2633459,9.99201065 L52.1021093,9.99201065 C52.6028632,9.99201065 52.8532364,10.2083867 52.8532364,10.6411451 L52.8532364,11.8195739 C52.8532364,12.2523324 52.6028632,12.4687084 52.1021093,12.4687084 L46.2633459,12.4687084 L46.2633459,16.183755 L52.9533868,16.183755 C53.4541407,16.183755 53.7045139,16.400131 53.7045139,16.8328895 L53.7045139,18.0113182 C53.7045139,18.4440768 53.4541407,18.6604527 52.9533868,18.6604527 L44.0400091,18.6604527 Z M56.8592489,18.6604527 C56.3918784,18.6604527 56.1581968,18.4107881 56.1581968,17.9114514 L56.1581968,5.0885486 C56.1581968,4.58921189 56.3918784,4.33954727 56.8592489,4.33954727 L58.3815336,4.33954727 C58.8489041,4.33954727 59.0825857,4.58921189 59.0825857,5.0885486 L59.0825857,17.9114514 C59.0825857,18.4107881 58.8489041,18.6604527 58.3815336,18.6604527 L56.8592489,18.6604527 Z M62.9884478,18.6604527 C62.5210774,18.6604527 62.2873957,18.4107881 62.2873957,17.9114514 L62.2873957,5.0885486 C62.2873957,4.58921189 62.5210774,4.33954727 62.9884478,4.33954727 L64.4706723,4.33954727 C65.0448704,4.33954727 65.4788506,4.57256758 65.7726265,5.03861518 L70.8802924,13.2177097 L70.9503975,13.2177097 C70.917014,12.8182404 70.9003225,12.418777 70.9003225,12.0193076 L70.9003225,5.0885486 C70.9003225,4.58921189 71.1340041,4.33954727 71.6013746,4.33954727 L73.1236593,4.33954727 C73.5910297,4.33954727 73.8247114,4.58921189 73.8247114,5.0885486 L73.8247114,17.9114514 C73.8247114,18.4107881 73.5910297,18.6604527 73.1236593,18.6604527 L71.7415847,18.6604527 C71.1673872,18.6604527 70.7334065,18.4274324 70.439631,17.9613848 L65.2318147,9.63249003 L65.1617096,9.63249003 C65.1950931,10.0319594 65.2117846,10.4314228 65.2117846,10.8308921 L65.2117846,17.9114514 C65.2117846,18.4107881 64.978103,18.6604527 64.5107325,18.6604527 L62.9884478,18.6604527 Z M78.0109942,18.6604527 C77.5436238,18.6604527 77.3099422,18.4107881 77.3099422,17.9114514 L77.3099422,16.5732357 C77.3099422,16.073899 77.5436238,15.8242344 78.0109942,15.8242344 L79.5332789,15.8242344 C80.0006494,15.8242344 80.2343315,16.073899 80.2343315,16.5732357 L80.2343315,17.9114514 C80.2343315,18.4107881 80.0006494,18.6604527 79.5332789,18.6604527 L78.0109942,18.6604527 Z M83.0185097,18.4707057 C82.6646435,18.2643132 82.5311114,18.0146486 82.6179089,17.7217044 L83.0385398,16.3535286 C83.1587208,15.9607171 83.4725223,15.9207708 83.9799529,16.2336884 C84.4139399,16.5066591 84.8979947,16.6431425 85.4321325,16.6431425 C86.1665717,16.6431425 86.6456193,16.390149 86.8692892,15.8841545 C87.0929596,15.3781599 87.204793,14.535958 87.204793,13.3575233 L87.204793,5.0885486 C87.204793,4.58921189 87.4384747,4.33954727 87.9058451,4.33954727 L89.4281298,4.33954727 C89.8955003,4.33954727 90.1291819,4.58921189 90.1291819,5.0885486 L90.1291819,13.1577896 C90.1291819,15.6078685 89.7169008,17.1940709 88.8923256,17.9164447 C88.0677508,18.6388185 86.9243795,19 85.4621774,19 C84.4406395,19 83.6260917,18.8235704 83.0185097,18.4707057 Z M93.3740521,17.5918775 C92.9600952,17.2789598 92.8599461,16.962718 93.0736013,16.6431425 L93.8447585,15.4846871 C94.0984738,15.1051912 94.4690265,15.085218 94.9564271,15.424767 C95.3303233,15.6844221 95.8193857,15.9523954 96.4236291,16.2286951 C97.0278721,16.5049947 97.6638204,16.6431425 98.3314926,16.6431425 C98.7988631,16.6431425 99.2495348,16.5898807 99.6835218,16.4833555 C100.117508,16.3768304 100.448001,16.1704409 100.67501,15.8641811 C100.902018,15.5579212 101.015521,15.1950753 101.015521,14.7756325 C101.015521,14.4760304 100.965446,14.2130504 100.865295,13.9866844 C100.765145,13.7603185 100.601567,13.5739022 100.374559,13.4274301 C100.14755,13.280958 99.9138685,13.1577901 99.6735065,13.0579228 C99.2528734,12.8848194 98.7237508,12.713383 98.086124,12.5436085 C97.4484975,12.373834 96.8192259,12.1691091 96.198291,11.9294274 C95.644123,11.7163771 95.1366996,11.4234373 94.6760059,11.0505992 C94.2153125,10.6777611 93.8581132,10.2583246 93.6043979,9.79227696 C93.3506826,9.32622938 93.2238267,8.70373225 93.2238267,7.92476699 C93.2238267,6.99932959 93.5242744,6.20706055 94.1251792,5.54793609 C94.7260845,4.88881162 95.4171145,4.46604621 96.198291,4.27962716 C96.979467,4.09320812 97.7673085,4 98.5618379,4 C99.3496911,4 100.16257,4.11983901 101.000498,4.35952064 C101.838427,4.59920226 102.471036,4.8987998 102.898347,5.25832224 C103.31898,5.61118685 103.422467,5.93075755 103.208813,6.21704394 L102.397595,7.30559253 C102.12385,7.67843063 101.756635,7.7083904 101.295942,7.39547271 C101.002166,7.195738 100.599899,6.97270428 100.08913,6.72636484 C99.578361,6.4800254 99.0459008,6.35685753 98.4917328,6.35685753 C98.0978065,6.35685753 97.7355999,6.39014614 97.405102,6.45672437 C97.0746044,6.5233026 96.782502,6.68308794 96.5287867,6.93608522 C96.2750714,7.1890825 96.1482156,7.50199547 96.1482156,7.87483357 C96.1482156,8.234356 96.2416884,8.52563138 96.4286363,8.74866846 C96.6155847,8.97170553 96.82256,9.13814857 97.0495685,9.24800266 C97.276577,9.35785675 97.5069205,9.44940043 97.7406058,9.52263647 C98.4616915,9.75566028 99.1059852,9.96038526 99.6735065,10.1368176 C100.241028,10.3132499 100.765142,10.5079883 101.245867,10.7210386 C101.913538,11.0206406 102.4243,11.3202382 102.778166,11.6198402 C103.132032,11.9194423 103.424135,12.3288922 103.654481,12.8482024 C103.884828,13.3675126 104,13.9866808 104,14.7057257 C104,15.7709774 103.659492,16.6514613 102.978467,17.3472037 C102.297441,18.0429462 101.541314,18.4923425 100.710062,18.6954061 C99.8788105,18.8984697 99.0692704,19 98.2814172,19 C97.1196677,19 96.174926,18.8884831 95.4471635,18.6654461 C94.719401,18.442409 94.0283705,18.0845564 93.3740521,17.5918775 Z" id="SEIN.JS" fill="#0D1A26"></path>
                </g>
            </g>
        </g>
    </g>
</svg>